<?xml version="1.0" encoding="utf-8"?>
<!-- Generator: Adobe Illustrator 19.0.0, SVG Export Plug-In . SVG Version: 6.00 Build 0)  -->
<svg version="1.1" id="Layer_1" xmlns="http://www.w3.org/2000/svg" xmlns:xlink="http://www.w3.org/1999/xlink" x="0px" y="0px"
	 viewBox="0 0 100 100" style="enable-background:new 0 0 100 100;" xml:space="preserve">
  <style type="text/css">
	.st0{fill:#fff;}
</style>
<path class="st0" d="M99,43.9c-0.9-1.1-1.1-2.2-1.8-3.3c-2-3.1-5.4-4.6-8.6-6.5c-1.6-0.9-3.2-2.3-4.5-2.9c-6-2.6-12.5,0.2-20.1-0.7
	c-3-0.3-6.4,0-10.1,0c-1.4,0-3.1-0.2-5.2-0.1c-1.6,0.1-3.7,0.1-4.6-0.3h-1.8c0,0,0,0-0.1,0c-6.4-0.2-12.7,0.1-19-0.2
	c-5.6-0.3-12.2-0.7-17.6,0.8c-0.1,0-0.2,0.1-0.3,0.1l0,0c0,0-0.1,0-0.1,0.1c-0.1,0-0.2,0.1-0.2,0.1c-1,0.7-2,1.4-2.8,2.3
	c-0.7,0.8-1.4,2.1-1.6,3.4c-0.1,0.6-0.2,1.2-0.2,1.9c0,2.4-0.7,4.9-0.6,7c0.1,1.4,0.4,3.1,0.7,4.6c0.3,1.5,0.4,3.2,0.8,4.5
	c0.7,2.3,2.6,4.2,4.2,6.3c2.7,3.6,3.9,5.4,8.4,6.8c1.9,0.6,4.4,0.7,6.8,1.1c2.4,0.4,4.8,1.1,6.9,1.1c2.3,0,4.4-0.8,6.3-1
	c3.8-0.3,7.2-0.5,10.7-0.7c9.4-0.4,19.3,1.2,28.7,1.2c3.8,0,7.5-0.2,10.9,0.3c1.1,0.1,2.2,0.7,3.3,0.7c1.2,0,4.2-0.9,5-1.4
	c1.6-0.8,4.5-4.4,5-6.1c0.4-1.3,0.3-3,0.7-4.5c0.6-2.2,1.5-4.1,1.5-6.1C100,49.5,99,47,99,43.9z M3.3,54.2c-0.4-0.7-0.4-2.2-0.7-3.7
	c-0.4-2.3-0.9-4.1-0.8-6.8c0.1-2,0.6-4,0.8-6c0.2-2.2,1.8-4.4,3.5-5.4c0,0,0.1,0,0.1,0c2.8-0.8,5.9-0.4,8.8-0.5
	c3.6-0.1,7.1-0.1,10.7,0.2c5,0.5,10.1-0.3,15.2-0.2c0.1,0,0.2,0,0.3,0.1c5.1,0.9,12.9,0.3,18.2,0.3c3.9,0,8.2,0.3,12.2-0.1
	c3.1-0.3,5.7-0.5,8.7,0.1c3,0.6,4.4,0.9,5.7,3.5c0.7,1.4,0.9,3,1.4,4.4c1.7,4.4,1.1,10.2-1.4,13.7c-0.7,1.1-1.5,2.8-2.3,3.3
	c-1,0.6-4.7,1-6.1,1.1c-1.2,0-2.2-0.4-3.5-0.4c-1.9-0.1-4,0.2-6,0.1c-2.1-0.1-4.3-0.1-6.4,0c-0.8,0.1-1.5,0.4-2.3,0.4
	c-3,0.2-6.3-0.2-9.5-0.1c-3.1,0-6.2,0.7-9.2,0.7c-2.4,0-4.8-0.3-7.2-0.4c-2.5-0.1-5,0-7.3,0c-2.3,0-4.6-0.4-6.9-0.4
	c-3.5,0-6.8-0.1-9.7-0.8c-0.9-0.2-1.9-0.3-2.6-0.5C6,56.3,3.8,55.2,3.3,54.2z M4.6,57.2c2.9-0.3,4.3,3.3,6.4,4.9
	c2.3,1.8,5.4,2.5,6.4,4.8C10.8,66.1,7.8,61.5,4.6,57.2z M18.7,65.4c-1-0.7-2.2-1.2-3-1.8c-2.2-1.5-3.8-3.4-5.6-4.5
	c0-0.1,0.2-0.1,0.3-0.1c1.5-0.1,2.1,0.9,3.1,1.5c2.5,1.5,5.3,2.5,7.3,4.5c1.5,0.5,2.8,1.1,3.3,2.6C21.3,68.3,20.4,66.6,18.7,65.4z
	 M22.3,63.7c-2.4-1.5-4.6-2.5-6.7-3.8c6.6-1.3,10.5,2.1,13.9,5.2c0.8,0.7,1.9,1.3,2,2.3C27.6,68.8,24.8,65.4,22.3,63.7z M34.3,66.6
	c-2.6-1.5-5.4-4.7-7.9-6c3.3-1.8,5.9,1.3,7.9,2.7c1.4,1,3.4,1.6,3.7,3.1C36.7,67,35.4,67.3,34.3,66.6z M41.8,66.5
	c-1.9-2.4-5.4-3.2-7.3-5.6c-0.2-0.2-0.1-0.2,0-0.4c5.3-0.7,8.2,2.8,9.8,5.8C43.6,66.6,42.6,66.4,41.8,66.5z M42.3,60.9
	c2.9-1.7,3.9,0.8,5.7,2.4c1.1,1,2.7,1.7,2.9,2.9C46.9,67.6,44.6,62.6,42.3,60.9z M53.2,65.4c-1.9-1.4-3.4-2.9-4.9-4.6
	c0.5-0.8,2.3-0.3,3.4-0.4c2.3,1.9,4.8,3.8,6.8,6C56.4,67,54.7,66.5,53.2,65.4z M59.1,63.9c-1.3-1.1-2.6-1.9-3.7-3
	c0.6-0.8,2.8-0.8,3.8-0.5c1,0.3,2.4,2.2,3.4,3.1c1.3,1.2,2.7,2.2,3,3.5C62.4,67.6,60.9,65.4,59.1,63.9z M71,67.5
	c-3.2-2.1-6.5-3.9-8.7-6.9c0-0.3,0.2-0.4,0.4-0.5c6.1-0.3,7.8,4.6,11.2,7.1C73.5,67.8,72,67.5,71,67.5z M74.3,65.2
	c-1.8-1.4-3.4-3.4-4.9-4.8c3.2-1.7,4.9,1.9,6.5,3.3c1.6,1.3,3.4,1.9,3.8,3.5C77.7,68,75.7,66.4,74.3,65.2z M85.2,67.8
	c-1.1,0.5-1.9-0.8-2.6-1.4c-1.6-1.3-3.2-2.2-4.9-3.5c-0.7-0.6-2-1.3-1.8-2.4c2.8-1.3,4.7,0.6,6.3,2.2C83.6,64.1,85.5,66.3,85.2,67.8
	z M85.7,64.1c-1.2-1.5-3.1-2.7-3.4-4.4c1.4-0.8,2.3,0.6,3.4,1.8c1.7,1.7,4.2,4.5,5.2,6.4C88.4,68.7,87,65.7,85.7,64.1z M93.1,66.5
	c-1.3-0.6-2.2-2-3.3-3.4c-1.3-1.6-4.5-3.2-3.8-6.3c0.1-0.5,0.9-1.6,1.9-1.5c0.8,0.1,2.9,2.2,3.3,2.7c0.2,0.3,0.1,0.6,0.4,1
	c1,1.4,3.3,2.6,3.5,3.9C95.4,64.7,93.7,65.3,93.1,66.5z M95.9,59.8c-2-0.9-4.3-2.9-5.7-4.6c-0.5-0.6-1.7-2-1.8-2.7
	c-0.1-0.6,0.7-2.6,1.4-2.7c1-0.1,1.7,1.9,2.3,2.4c0.3,0.3,1,0.4,1.5,0.8c0.5,0.4,3.3,3.3,3.4,4.1C97.2,58.3,96.3,58.9,95.9,59.8z
	 M97.6,53.9c-1.1,0.1-1.3-1-2-1.6c-1.7-1.5-3.1-2.3-4.5-4.2c-0.8-1.1-1.6-1.9-1.2-3.8c0-0.2,0.1-0.2,0.1-0.4c0.1,0,0.2,0,0.3,0
	c1.4,1.2,3.2,2.9,4.8,4.5c0.7,0.8,1.6,1.6,2.2,2.3C97.7,51.3,98.7,53,97.6,53.9z M98.4,49.5c-1.9-0.8-2.8-2.7-4.5-4.4
	c-0.6-0.6-1.5-1.3-2.3-2.2c-0.6-0.6-2-1.4-2.3-2c-0.2-0.3,0-0.9-0.1-1.6c-0.3-1.4-1.1-2.3-1-3.8c0.1,0,0.3,0,0.4,0
	c2.2,0.8,3.6,2.7,5.3,4.4C96.3,42.1,98.8,44.6,98.4,49.5z M27.1,40.7c-0.4,0.8-0.8,1.6-1.3,2.2l-0.9-0.6c1-1.4,1.7-3,2.1-4.7
	l1.1,0.2c-0.2,0.7-0.4,1.3-0.6,1.8h4.3v1h-2.2c0,1.1-0.1,2.1-0.2,3H32v1h-2.7c-0.1,0.5-0.2,0.9-0.2,1.1c1,1,2,2.1,2.9,3.3l-0.6,1
	c-1-1.4-1.9-2.5-2.6-3.3c-0.6,1.7-1.7,3.1-3.3,4.2l-0.7-0.9c1.6-1.2,2.6-2.6,3.1-4.4c0.1-0.5,0.2-0.8,0.3-1.1h-3.1v-1h3.3
	c0.1-0.9,0.2-1.9,0.2-3H27.1z M37.8,39.3v11.5h-1v-1h-2.9v1h-1V39.3H37.8z M33.8,48.8h2.9v-8.5h-2.9V48.8z M49.8,51.1
	c-0.5,0-1.4,0-2.7,0c-1,0-1.7-0.1-2.3-0.3c-0.6-0.2-1.1-0.5-1.6-1.1c-0.2-0.2-0.4-0.4-0.6-0.4c-0.4,0-1,0.7-1.8,2.1L40,50.7
	c0.8-1.3,1.5-2.1,2.2-2.3v-4.6H40v-1h3.2v5.6c0.1,0.1,0.2,0.2,0.4,0.3c0.4,0.4,0.7,0.7,1.2,0.9c0.5,0.2,1.1,0.3,2,0.4c1,0,2,0,2.9,0
	c0.5,0,1.2,0,2.2,0c0.8,0,1.4,0,1.7-0.1l-0.3,1.1H49.8z M41.1,37.9c1,0.8,1.9,1.6,2.6,2.3L42.9,41c-0.6-0.8-1.5-1.6-2.6-2.4
	L41.1,37.9z M44.2,39.3h2.5c-0.2-0.5-0.5-0.9-0.8-1.3l1-0.4c0.4,0.5,0.7,1.1,0.9,1.7h1.8c0.4-0.6,0.7-1.2,1-1.7l1,0.4
	c-0.3,0.5-0.5,1-0.8,1.4h2.6v1h-4.2c-0.1,0.4-0.2,0.8-0.4,1.2h3.6v7.2h-7.1v-7.2h2.4c0.1-0.4,0.3-0.8,0.4-1.2h-3.8V39.3z M46.2,43.7
	h5.1v-1.2h-5.1V43.7z M46.2,45.7h5.1v-1.1h-5.1V45.7z M51.2,47.8v-1.2h-5.1v1.2H51.2z M61.4,42.7c1.5-0.9,2.9-1.9,4.4-3.1h-9.9v-1.1
	h11.3v1.1c-1.4,1.3-3,2.5-4.7,3.6v6.7c0,0.9-0.5,1.4-1.4,1.4c-0.7,0-1.5,0-2.4-0.1l-0.3-1c0.7,0.1,1.5,0.1,2.4,0.1
	c0.4,0,0.6-0.2,0.6-0.5V42.7z"/>
</svg>
