<?xml version="1.0" encoding="utf-8"?>
<!-- Generator: Adobe Illustrator 19.0.0, SVG Export Plug-In . SVG Version: 6.00 Build 0)  -->
<svg version="1.1" id="Objects" xmlns="http://www.w3.org/2000/svg" xmlns:xlink="http://www.w3.org/1999/xlink" x="0px" y="0px"
	 viewBox="-224 518 300 300" style="enable-background:new -224 518 300 300;" xml:space="preserve">
  <style type="text/css">
	.st0{fill:#fff;}
</style>
<path class="st0" d="M-6.9,519.2c1.6-2,5-1.6,5.6,1.1C5,549.3,9.1,578.5,11,608c0.2,3.1-4.7,3.9-5.9,1.2c-4-9.3-7.9-18.5-11.9-27.8
	c-15.9,102.1-60.4,165.5-133.4,236c-1.8,1.8-4.4-1.2-2.6-3c72.3-74,119.7-138.2,131.5-244.1c0.3-2.8,4.4-4.1,5.7-1.2
	c3,6.8,6,13.6,8.9,20.4c-2-20.6-5.1-41.1-9.3-61.4c-12.1,15.4-24.5,30.6-37.2,45.6c8.5-2.2,16.8-4.9,25-8c1.8-0.7,4.9,0.4,4.4,2.9
	C-32.4,672.2-70.6,742.4-154,806.7c-3.1,2.4-7.1-2.2-4-4.6c80.6-62.2,118-128.9,137.2-229c-9.9,3.6-19.9,6.5-30.2,8.9
	c-2.4,0.6-5-2.6-3.2-4.7C-38,558.3-22.2,539-6.9,519.2z"/>
</svg>
