<svg style="position: absolute; width: 0; height: 0; overflow: hidden;" version="1.1" xmlns="http://www.w3.org/2000/svg" xmlns:xlink="http://www.w3.org/1999/xlink">
<defs>
<symbol id="icon-hold" viewBox="0 0 38 32">
<title>hold</title>
<path fill="#fb3b31" style="fill: var(--color1, #fb3b31)" d="M9.2 13.4h9.4c0.6 0 1.2 0.5 1.2 1.2 0 0.6-0.5 1.2-1.2 1.2h-9.4c-0.6 0-1.2-0.5-1.2-1.2s0.6-1.2 1.2-1.2v0zM8 21.5v0c0-0.6 0.5-1.2 1.2-1.2h7.1c0.6 0 1.2 0.5 1.2 1.2 0 0.6-0.5 1.2-1.2 1.2h-7.1c-0.6 0-1.2-0.5-1.2-1.2v0zM8 28.5v0c0-0.6 0.5-1.2 1.2-1.2h9.4c0.6 0 1.2 0.5 1.2 1.2 0 0.6-0.5 1.2-1.2 1.2h-9.4c-0.6 0-1.2-0.5-1.2-1.2v0zM24.4 12.4l-10.2-8.8-9.6 10.7v16.5c0 0.6-0.5 1.2-1.2 1.2s-1.2-0.5-1.2-1.2v-14.2c-0.5 0.5-1.3 0.5-1.8 0s-0.5-1.3 0-1.8l13.8-14.8 0.1 0.1 11.8 10.5c0.8 0.8 0.3 2.2-0.9 2.2-0.3 0-0.6-0.1-0.8-0.4v0zM34.5 26.4l3.2 3.1c0.5 0.5 0.5 1.2 0 1.6-0.5 0.5-1.2 0.5-1.7 0l-3.2-3.1c-1.6 1.2-3.5 1.8-5.7 1.6-4.1-0.4-7.3-3.7-7.4-7.7-0.2-4.8 3.8-8.7 8.6-8.5 4.1 0.2 7.4 3.3 7.8 7.4 0.2 2.1-0.5 4.1-1.6 5.6v0zM27.9 27.4c3.2 0 5.9-2.6 5.9-5.8s-2.6-5.8-5.9-5.8c-3.2 0-5.9 2.6-5.9 5.8s2.7 5.8 5.9 5.8v0z"></path>
</symbol>
<symbol id="icon-bell" viewBox="0 0 30 32">
<title>bell</title>
<path fill="#fb3b31" style="fill: var(--color1, #fb3b31)" d="M15.059 32c-0.847 0-1.6-0.282-2.165-0.941s-0.941-1.318-0.941-2.165h6.118c0 0.847-0.282 1.6-0.847 2.259-0.565 0.565-1.318 0.847-2.165 0.847zM26.353 28.235h-22.588c-1.129 0-2.071-0.941-2.071-2.165v0c0-0.565 0.188-1.129 0.565-1.506l2.541-2.541v-7.435c0-2.635 0.659-5.082 1.976-7.059 1.224-1.788 2.918-3.106 4.894-3.765v-0.282c0-0.847 0.282-1.694 0.753-2.353 0.753-0.753 1.6-1.129 2.635-1.129 0.941 0 1.788 0.376 2.353 1.035 0.659 0.659 0.941 1.506 0.941 2.353v0.376c2.071 0.659 3.671 1.976 4.894 3.765 1.318 1.976 1.976 4.424 1.976 7.059v7.435l2.541 2.541c0.376 0.376 0.565 0.941 0.565 1.506 0.094 1.224-0.847 2.165-1.976 2.165zM3.671 26.259h22.776v-0.094l-3.106-3.2v-8.282c0-2.259-0.565-4.235-1.694-5.929-1.129-1.6-2.541-2.635-4.518-3.2l-0.753-0.188v-1.882c0-0.376-0.094-0.659-0.376-0.941s-0.565-0.376-0.941-0.376c-0.376 0-0.659 0.094-0.941 0.376s-0.376 0.565-0.376 0.941v1.882l-0.753 0.188c-1.976 0.471-3.388 1.506-4.518 3.106-1.129 1.694-1.694 3.671-1.694 5.929v8.282l-3.106 3.2v0.188zM30.118 12.047c0.094 0.376-0.094 0.753-0.282 1.035-0.282 0.282-0.565 0.471-0.941 0.471h-0.188c-0.659 0-1.129-0.471-1.224-1.035-0.376-1.976-1.412-5.741-4.047-8.094-0.282-0.282-0.471-0.565-0.471-0.941s0.094-0.753 0.376-0.941c0.471-0.471 1.224-0.565 1.788-0.094 2.729 2.541 4.424 5.835 4.988 9.6zM1.412 13.553v0c-0.471 0-0.847-0.188-1.035-0.471-0.282-0.282-0.376-0.659-0.376-1.035 0.565-3.765 2.259-7.059 5.082-9.6 0.282-0.282 0.565-0.376 0.847-0.376 0.376 0 0.659 0.094 0.941 0.376v0c0.282 0.282 0.376 0.659 0.376 1.035s-0.188 0.753-0.471 1.035c-2.259 2.071-3.671 4.706-4.047 7.812-0.094 0.753-0.659 1.224-1.318 1.224z"></path>
</symbol>
<symbol id="icon-guarantee-1" viewBox="0 0 32 32">
<title>guarantee-1</title>
<path fill="#797979" style="fill: var(--color2, #797979)" d="M23.651 17.6l-0.204-0.175c-0.116-0.087-1.105-0.844-2.327-0.931-1.367-0.087-2.385 0.902-2.385 0.931l-0.087 0.087-0.087-0.087c-0.815-0.756-1.745-1.135-2.705-1.135-1.6 0-2.851 1.076-2.909 1.135l-0.087 0.087-0.087-0.087c-0.553-0.611-1.193-0.902-1.92-0.902-1.251 0-2.298 0.902-2.298 0.902l-0.204 0.175v-0.262c0-4.16 3.433-7.564 7.651-7.564 2.036 0 3.956 0.785 5.411 2.211s2.24 3.316 2.24 5.353v0.262zM21.702 11.695c-1.513-1.513-3.549-2.327-5.702-2.327-4.451 0-8.058 3.578-8.058 7.971v1.164l0.902-0.756c0 0 0.96-0.815 2.036-0.815 0.611 0 1.135 0.262 1.6 0.756l0.349 0.378 0.407-0.349c0.058-0.029 1.164-1.018 2.618-1.018 0.844 0 1.658 0.349 2.415 1.018l0.378 0.349 0.349-0.349c0 0 0.902-0.873 2.065-0.785 1.105 0.087 2.007 0.756 2.095 0.844l0.873 0.727v-1.135c0.029-2.153-0.815-4.16-2.327-5.673v0z"></path>
<path fill="#ff8200" style="fill: var(--color3, #ff8200)" d="M16 7.418c-0.116 0-0.204 0.087-0.204 0.204v0.698c0 0.116 0.087 0.204 0.204 0.204s0.204-0.087 0.204-0.204v-0.698c0-0.116-0.087-0.204-0.204-0.204z"></path>
<path fill="#ff8200" style="fill: var(--color3, #ff8200)" d="M14.196 23.564c-0.029-0.029-0.087-0.058-0.116-0.058v0 0c-0.058 0-0.087 0.029-0.116 0.029-0.029 0.029-0.058 0.087-0.058 0.116 0 0.058-0.029 0.524 0.291 0.873 0.204 0.233 0.495 0.349 0.873 0.349 0.407 0 0.698-0.116 0.902-0.349 0.291-0.32 0.262-0.756 0.262-0.844v-5.556c0-0.116-0.087-0.175-0.204-0.175s-0.204 0.087-0.204 0.204v5.585c0 0.058 0.029 0.349-0.175 0.582-0.116 0.145-0.349 0.204-0.611 0.204s-0.465-0.058-0.582-0.204c-0.204-0.233-0.175-0.553-0.175-0.582-0.029-0.087-0.029-0.145-0.087-0.175z"></path>
<path fill="#797979" style="fill: var(--color2, #797979)" d="M16 0.407c-8.611 0-15.593 7.011-15.593 15.593 0 8.611 7.011 15.593 15.593 15.593 8.611 0 15.593-7.011 15.593-15.593s-6.982-15.593-15.593-15.593zM16 32c-8.815 0-16-7.185-16-16s7.185-16 16-16 16 7.185 16 16-7.185 16-16 16z"></path>
</symbol>
<symbol id="icon-guarantee-2" viewBox="0 0 32 32">
<title>guarantee-2</title>
<path fill="#ff8200" style="fill: var(--color3, #ff8200)" d="M15.084 21.062l0.553-1.745-0.116-0.087c-0.32-0.233-0.495-0.582-0.495-0.989 0-0.669 0.553-1.193 1.222-1.193s1.222 0.553 1.222 1.193c0 0.378-0.175 0.756-0.495 0.989l-0.116 0.087 0.553 1.775h-2.269l-0.058-0.029zM17.324 19.491l0.087-0.087c0.32-0.32 0.495-0.727 0.495-1.164 0-0.902-0.756-1.629-1.658-1.629s-1.658 0.727-1.658 1.629c0 0.436 0.175 0.844 0.495 1.164l0.087 0.087v0.029l-0.64 2.036h3.491l-0.698-2.065z"></path>
<path fill="#797979" style="fill: var(--color2, #797979)" d="M12.844 11.055c0-1.833 1.513-3.345 3.375-3.345s3.375 1.513 3.375 3.345v2.356h-6.778v-2.356zM21.629 13.847c0.145 0 0.262 0.116 0.262 0.262v9.891c0 0.145-0.116 0.262-0.262 0.262h-10.851c-0.145 0-0.262-0.116-0.262-0.262v-9.891c0-0.145 0.116-0.262 0.262-0.262h10.851zM12.378 13.411h-1.6c-0.407 0-0.727 0.32-0.727 0.698v9.891c0 0.378 0.32 0.698 0.727 0.698h10.851c0.407 0 0.727-0.32 0.727-0.698v-9.891c0-0.378-0.32-0.698-0.727-0.698h-1.6v-2.356c0-2.095-1.716-3.782-3.84-3.782s-3.84 1.687-3.84 3.782v2.356z"></path>
<path fill="#797979" style="fill: var(--color2, #797979)" d="M16.218 0.407c-8.611 0-15.593 7.011-15.593 15.593 0 8.611 7.011 15.593 15.593 15.593s15.593-7.011 15.593-15.593-6.982-15.593-15.593-15.593zM16.218 32c-8.815 0-16-7.185-16-16s7.185-16 16-16 16 7.185 16 16-7.185 16-16 16z"></path>
</symbol>
<symbol id="icon-guarantee-3" viewBox="0 0 32 32">
<title>guarantee-3</title>
<path fill="#797979" style="fill: var(--color2, #797979)" d="M16.145 0.407c-8.611 0-15.593 7.011-15.593 15.593s7.011 15.593 15.593 15.593 15.593-7.011 15.593-15.593c0-8.611-6.982-15.593-15.593-15.593zM16.145 32c-8.815 0-16-7.185-16-16s7.185-16 16-16 16 7.185 16 16c0 8.815-7.185 16-16 16z"></path>
<path fill="#797979" style="fill: var(--color2, #797979)" d="M16.058 24.32h0.349c0.815-0.32 3.636-1.862 4.771-3.433l0.029-0.029c1.309-1.309 1.862-2.589 1.862-4.335v-6.167c0-0.145-0.087-0.291-0.204-0.349l-6.545-2.327h-0.262l-6.691 2.327c-0.116 0.058-0.175 0.175-0.175 0.349v6.4c0 1.484 0.582 2.851 1.862 4.335 1.28 1.367 4.102 2.909 5.004 3.229v0zM16.495 24.727h-0.524c-0.931-0.32-3.84-1.891-5.207-3.345-1.367-1.6-1.978-3.025-1.978-4.625v-6.4c0-0.32 0.175-0.582 0.436-0.698l6.807-2.356h0.378l6.604 2.356c0.291 0.145 0.465 0.407 0.465 0.727v6.196c0 1.833-0.611 3.229-1.978 4.596-1.193 1.629-4.102 3.229-4.975 3.578l-0.029-0.029z"></path>
<path fill="#ff8200" style="fill: var(--color3, #ff8200)" d="M16.495 19.84v-2.415h2.618c0.175 0 0.262-0.087 0.262-0.262s-0.087-0.262-0.262-0.262h-2.618v-1.92h2.618c0.175 0 0.262-0.087 0.262-0.262s-0.087-0.262-0.262-0.262h-2.007l1.571-2.153c0.087-0.116 0.058-0.291-0.058-0.407-0.116-0.087-0.291-0.058-0.407 0.058l-1.804 2.502h-0.32l-1.804-2.502c-0.058-0.058-0.116-0.116-0.175-0.116-0.087 0-0.145 0-0.204 0.058-0.116 0.087-0.145 0.262-0.058 0.407l1.571 2.153h-2.007c-0.175 0-0.262 0.087-0.262 0.262s0.087 0.262 0.262 0.262h2.618v1.949h-2.618c-0.175 0-0.262 0.087-0.262 0.262s0.087 0.262 0.262 0.262h2.618v2.415c0 0.175 0.087 0.262 0.262 0.262 0.029-0.058 0.204-0.145 0.204-0.291z"></path>
</symbol>
<symbol id="icon-guarantee-4" viewBox="0 0 32 32">
<title>guarantee-4</title>
<path fill="#797979" style="fill: var(--color2, #797979)" d="M24.102 17.018v0c-1.018 0.698-2.065 1.425-3.055 2.095l-0.931 0.64-0.291 0.204c-0.844 0.582-1.658 1.135-2.502 1.716-0.32 0.204-0.611 0.32-0.931 0.32-0.233 0-0.495-0.058-0.756-0.204-0.378-0.204-0.785-0.407-1.164-0.582-0.785-0.407-1.629-0.815-2.415-1.251-0.669-0.378-1.251-0.378-1.891 0-0.233 0.145-0.465 0.262-0.756 0.436l-0.029 0.029-1.571-3.578h0.029c0.116-0.058 0.233-0.116 0.32-0.145 0.233-0.116 0.436-0.204 0.669-0.291 0.204-0.087 0.407-0.175 0.611-0.262 0.582-0.262 1.193-0.495 1.804-0.669 0.378-0.116 0.873-0.058 1.309 0.145 0.815 0.378 1.484 0.756 2.036 1.164 0.873 0.669 1.862 0.785 2.705 0.815 0.262 0 0.495 0 0.756 0.029 0.233 0 0.436 0 0.669 0 0.262 0 0.64 0.087 0.64 0.524 0 0.175-0.058 0.32-0.175 0.465s-0.32 0.204-0.495 0.204c-0.291 0-0.582 0-0.873 0.029-0.756 0.029-1.542 0.029-2.298-0.029-0.553-0.058-1.076-0.262-1.6-0.436-0.204-0.087-0.407-0.145-0.64-0.204-0.204-0.058-0.378-0.145-0.582-0.204-0.087-0.029-0.175-0.058-0.233-0.087l-0.087 0.087c0.116 0.116 0.204 0.204 0.32 0.32 0.233 0.262 0.495 0.495 0.756 0.727 0.611 0.465 1.425 1.018 2.56 0.902 0.553-0.058 1.105-0.029 1.658-0.029 0.262 0 0.553 0 0.815 0 0.727 0 1.338-0.32 1.687-0.844 0.349-0.553 0.378-1.222 0.058-1.891-0.029-0.087-0.087-0.291-0.029-0.349 0.087-0.058 0.175-0.145 0.233-0.233 0.291-0.262 0.582-0.524 0.902-0.669 0.262-0.116 0.465-0.116 0.64-0.029 0.175 0.116 0.291 0.378 0.291 0.698 0 0.058 0 0.116 0 0.175v0.058c0.087-0.029 0.175-0.087 0.262-0.116 0.233-0.116 0.465-0.204 0.727-0.291 0.233-0.087 0.495-0.116 0.669-0.087s0.378 0.175 0.436 0.349c0.029 0.029-0.145 0.262-0.262 0.349v0zM20.029 16.698c-0.058-0.087-0.785-0.145-2.124-0.145h-0.116l0.116-0.058c0.465-0.233 1.193-0.553 1.542-0.698 0.145-0.058 0.262-0.058 0.349 0 0.116 0.058 0.204 0.175 0.233 0.349 0.029 0.116 0.029 0.262 0.029 0.378 0 0.058 0 0.116 0 0.145v0.116l-0.029-0.087zM24.655 16.407v0c-0.087-0.32-0.378-0.495-0.785-0.465-0.291 0.029-0.553 0.058-0.844 0.116-0.145 0.029-0.262 0.058-0.407 0.058h-0.029v-0.029c-0.204-0.495-0.524-0.727-0.931-0.669-0.262 0.029-0.407 0.116-0.611 0.262-0.116 0.087-0.291 0.175-0.495 0.291h-0.029l-0.029-0.029c-0.436-0.553-0.902-0.669-1.484-0.378-0.407 0.204-0.785 0.436-1.164 0.64-0.175 0.087-0.349 0.204-0.553 0.291-0.116 0.058-0.262 0.145-0.378 0.204l-0.087 0.058c0.727 0.058 1.396 0.058 2.007 0.058 0 0 0.029 0 0.029 0 0.436 0 0.873 0.087 1.076 0.553 0.233 0.553 0.145 1.047-0.233 1.484-0.349 0.407-0.815 0.611-1.455 0.611-0.349 0-0.698 0-1.018 0-0.582 0-1.164 0-1.745 0.029-0.553 0.029-0.902-0.233-1.28-0.524-0.029-0.029-0.058-0.058-0.116-0.087l-0.204-0.145 0.233 0.087c0.815 0.349 1.658 0.32 2.502 0.291 0.32 0 0.611-0.029 0.931 0 0.058 0 0.145 0 0.204 0 0.32 0 0.669 0.029 0.989 0 0.553-0.058 0.931-0.524 0.902-1.135-0.029-0.465-0.349-0.698-0.931-0.727h-0.087c-0.582-0.029-1.164-0.029-1.745-0.087-0.727-0.058-1.367-0.262-1.92-0.64-0.669-0.436-1.367-0.815-2.036-1.193l-0.291-0.175c-0.524-0.291-1.105-0.349-1.629-0.145-0.902 0.349-1.745 0.698-2.676 1.076-0.349 0.145-0.727 0.291-1.076 0.465 0.669 1.542 1.338 2.996 1.978 4.451 0.116-0.058 0.204-0.145 0.32-0.204 0.233-0.175 0.465-0.32 0.698-0.465 0.32-0.175 0.611-0.262 0.902-0.262 0.262 0 0.524 0.087 0.815 0.233 0.669 0.378 1.396 0.727 2.095 1.076 0.407 0.204 0.844 0.436 1.28 0.64 0.815 0.436 1.571 0.378 2.327-0.145 2.385-1.658 4.567-3.142 6.662-4.567 0.32-0.204 0.436-0.495 0.32-0.902v0z"></path>
<path fill="#797979" style="fill: var(--color2, #797979)" d="M16.073 0.407c-8.611 0-15.593 7.011-15.593 15.593 0 8.611 7.011 15.593 15.593 15.593s15.593-7.011 15.593-15.593-6.982-15.593-15.593-15.593zM16.073 32c-8.815 0-16-7.185-16-16s7.185-16 16-16 16 7.185 16 16-7.185 16-16 16z"></path>
<path fill="#ff8200" style="fill: var(--color3, #ff8200)" d="M16.305 15.651c0 0 0.029 0 0 0 1.571 0 2.764-1.193 2.793-2.764 0-1.6-1.164-2.851-2.735-2.851 0 0-0.029 0-0.029 0-1.542 0-2.793 1.222-2.822 2.764 0 0.756 0.262 1.455 0.785 1.978 0.553 0.582 1.28 0.873 2.007 0.873zM16.335 15.884v0c-0.815 0-1.6-0.32-2.153-0.902-0.582-0.582-0.873-1.338-0.873-2.153 0.029-1.687 1.367-2.996 3.055-2.996h0.029c1.716 0 2.967 1.338 2.967 3.084-0.029 1.658-1.367 2.967-3.025 2.967z"></path>
<path fill="#ff8200" style="fill: var(--color3, #ff8200)" d="M17.498 13.207h-1.047v-0.727h1.047c0.087 0 0.116-0.058 0.116-0.116s-0.058-0.116-0.116-0.116h-0.756l0.611-0.844c0.058-0.058 0.029-0.145-0.029-0.204s-0.145-0.029-0.204 0.029l-0.756 0.989h-0.087l-0.727-1.018c-0.029-0.029-0.058-0.058-0.087-0.058s-0.087 0-0.116 0.029c-0.029 0.029-0.058 0.058-0.058 0.087s0 0.087 0.029 0.116l0.611 0.844h-0.756c-0.087 0-0.116 0.058-0.116 0.116s0.058 0.116 0.116 0.116h1.047v0.727h-1.047c-0.087 0-0.116 0.058-0.116 0.116s0.058 0.116 0.116 0.116h1.047v0.96c0 0.087 0.058 0.116 0.116 0.116 0.029 0 0.116-0.058 0.116-0.116v-0.902h1.047c0.087 0 0.116-0.058 0.116-0.116s-0.029-0.145-0.116-0.145z"></path>
</symbol>
<symbol id="icon-guarantee-5" viewBox="0 0 32 32">
<title>guarantee-5</title>
<path fill="#797979" style="fill: var(--color2, #797979)" d="M12.684 24v-2.996c0-0.233-0.145-0.436-0.32-0.436s-0.32 0.204-0.32 0.436v3.025c0 0.233 0.145 0.436 0.32 0.436 0.145-0.029 0.32-0.233 0.32-0.465z"></path>
<path fill="#ff8200" style="fill: var(--color3, #ff8200)" d="M11.404 18.095l0.058-0.029c4.567-1.367 8.291-4.189 10.502-7.942l0.233-0.378 0.844 0.553-0.116-2.735-2.211 1.513 0.902 0.349-0.233 0.407c-2.124 3.636-5.702 6.342-10.095 7.651h-0.058c-0.145 0.029-0.262 0.145-0.262 0.32s0.145 0.32 0.32 0.32c0.029 0 0.087 0 0.116-0.029z"></path>
<path fill="#797979" style="fill: var(--color2, #797979)" d="M16 18.764c-0.175 0-0.32 0.204-0.32 0.436v4.8c0 0.233 0.145 0.436 0.32 0.436s0.32-0.204 0.32-0.436v-4.8c0-0.233-0.145-0.436-0.32-0.436z"></path>
<path fill="#797979" style="fill: var(--color2, #797979)" d="M23.331 12.393c-0.175 0-0.32 0.204-0.32 0.436v11.2c0 0.233 0.145 0.436 0.32 0.436s0.32-0.204 0.32-0.436v-11.2c0-0.262-0.145-0.436-0.32-0.436z"></path>
<path fill="#797979" style="fill: var(--color2, #797979)" d="M8.669 17.978c-0.175 0-0.32 0.204-0.32 0.436v0.175c0 0.233 0.145 0.436 0.32 0.436s0.32-0.204 0.32-0.436v-0.175c0.029-0.262-0.116-0.436-0.32-0.436z"></path>
<path fill="#797979" style="fill: var(--color2, #797979)" d="M19.985 24v-7.593c0-0.233-0.145-0.436-0.32-0.436s-0.32 0.204-0.32 0.436v7.622c0 0.233 0.145 0.436 0.32 0.436 0.175-0.029 0.32-0.233 0.32-0.465z"></path>
<path fill="#797979" style="fill: var(--color2, #797979)" d="M8.815 22.167c-0.175 0-0.32 0.204-0.32 0.436v1.396c0 0.233 0.145 0.436 0.32 0.436s0.32-0.204 0.32-0.436v-1.396c0.029-0.233-0.116-0.436-0.32-0.436z"></path>
<path fill="#797979" style="fill: var(--color2, #797979)" d="M16 0.407c-8.611 0-15.593 7.011-15.593 15.593 0 8.611 7.011 15.593 15.593 15.593 8.611 0 15.593-7.011 15.593-15.593 0-8.611-6.982-15.593-15.593-15.593zM16 32c-8.815 0-16-7.185-16-16s7.185-16 16-16c8.815 0 16 7.185 16 16s-7.185 16-16 16z"></path>
</symbol>
<symbol id="icon-home-me" viewBox="0 0 29 32">
<title>home-me</title>
<path d="M21.638 31.162c0 0.457-0.381 0.838-0.914 0.838h-1.371c-0.533 0-0.914-0.381-0.914-0.838s0.381-0.838 0.914-0.838h1.371c0.533 0 0.914 0.381 0.914 0.838zM28.495 31.39c-0.381 0.381-0.838 0.61-1.371 0.61h-3.276c-0.457 0-0.838-0.381-0.838-0.838s0.381-0.838 0.838-0.838h3.429v-0.229c-0.229-2.362-1.143-4.419-2.743-6.171-1.524-1.676-3.581-2.743-5.79-3.124-0.076 0-0.229 0-0.305 0.076v0c-1.295 1.676-2.971 3.886-3.276 4.343-0.152 0.229-0.457 0.381-0.762 0.381v0c-0.305 0-0.533-0.152-0.762-0.381-0.686-0.838-2.286-2.743-3.429-4.19-0.076-0.076-0.152-0.152-0.305-0.076v0c-2.21 0.533-4.19 1.6-5.638 3.2-1.524 1.6-2.362 3.657-2.59 5.943v0.229h14.476c0.457 0 0.838 0.381 0.838 0.838s-0.381 0.838-0.838 0.838h-14.324c-0.533 0-0.99-0.229-1.371-0.61-0.305-0.381-0.457-0.914-0.457-1.371 0.457-5.333 4.267-9.448 9.6-10.667 0.686-0.152 1.448 0.076 1.905 0.686 0.838 0.99 1.752 2.057 2.438 2.971l0.457 0.533 0.305-0.381c0.686-0.914 1.676-2.21 2.438-3.276 0.457-0.533 1.143-0.838 1.829-0.762 2.59 0.457 4.952 1.752 6.781 3.657 1.829 1.981 2.971 4.419 3.2 7.162v0c0.076 0.533-0.152 1.067-0.457 1.448zM14.171 1.676c4.343 0 7.924 3.505 7.924 7.848 0 2.133-0.838 4.114-2.286 5.562-1.524 1.524-3.505 2.286-5.562 2.286s-4.114-0.838-5.562-2.286c-1.524-1.524-2.286-3.505-2.286-5.562 0-2.133 0.838-4.114 2.286-5.562s3.429-2.286 5.486-2.286zM14.171 19.124c2.59 0 4.952-0.99 6.781-2.819s2.819-4.19 2.819-6.781c0-2.514-0.99-4.952-2.819-6.781-1.829-1.752-4.19-2.743-6.781-2.743s-4.952 0.99-6.781 2.819c-1.752 1.752-2.743 4.19-2.743 6.705s0.99 4.952 2.819 6.781c1.752 1.829 4.19 2.819 6.705 2.819z"></path>
</symbol>
<symbol id="icon-service" viewBox="0 0 32 32">
<title>service</title>
<path d="M18.971 25.981c0.686 0.457 1.219 1.143 1.448 1.981s0.076 1.676-0.305 2.438v0 0c-0.381 0.762-1.067 1.295-1.829 1.524s-1.6 0.076-2.286-0.305v0c-0.686-0.381-1.143-1.067-1.371-1.905h-5.486c0 0-0.076 0-0.076 0-1.905-0.076-4.495-0.61-6.4-1.981-1.6-1.067-2.667-2.59-2.667-4.648v-7.543c0-1.448 1.143-2.667 2.514-2.667h0.381c0.305-3.276 1.6-6.4 3.81-8.762 2.438-2.59 5.714-4.114 9.371-4.114s7.010 1.6 9.371 4.114c2.21 2.362 3.581 5.41 3.81 8.762h0.152c0.686 0 1.295 0.305 1.752 0.762l0.076 0.076c0.457 0.457 0.686 1.143 0.686 1.829v8.457c0 0.762-0.305 1.371-0.762 1.905v0c-0.457 0.533-1.143 0.762-1.752 0.762h-2.286c-0.686 0-1.295-0.305-1.752-0.762v0c-0.457-0.533-0.762-1.219-0.762-1.905v-8.457c0-1.448 1.143-2.667 2.514-2.667h0.457c-0.305-2.819-1.448-5.486-3.352-7.467-2.21-2.286-5.105-3.581-8.229-3.581-3.048 0-6.019 1.295-8.229 3.581-1.905 1.981-3.048 4.648-3.352 7.467h0.229c0.686 0 1.295 0.305 1.752 0.762 0 0 0 0.076 0.076 0.076 0.457 0.533 0.686 1.143 0.686 1.829v7.619c0 0.457-0.381 0.914-0.838 0.838-0.457 0-0.762-0.381-0.838-0.838v-7.619c0-0.229-0.076-0.457-0.229-0.61v0c-0.152-0.152-0.381-0.229-0.61-0.229h-2.286c-0.229 0-0.457 0.076-0.61 0.229s-0.229 0.381-0.229 0.61v7.543c0 1.371 0.762 2.362 1.829 3.124 1.676 1.143 3.962 1.6 5.562 1.676h5.486c0.076-0.229 0.152-0.457 0.305-0.686v0c0.381-0.762 1.067-1.295 1.829-1.524 0.914-0.229 1.752-0.152 2.438 0.305v0 0zM18.21 27.505c0 0-0.076 0-0.076-0.076-0.305-0.152-0.686-0.229-0.99-0.076-0.381 0.076-0.61 0.305-0.838 0.686v0c-0.076 0.229-0.152 0.457-0.152 0.686v0.076c0 0.152 0 0.229 0.076 0.381 0.076 0.305 0.305 0.686 0.61 0.838 0 0 0.076 0.076 0.076 0.076 0.305 0.152 0.686 0.229 0.99 0.076 0.305-0.076 0.61-0.305 0.838-0.61 0 0 0-0.076 0.076-0.076 0.152-0.305 0.229-0.686 0.076-1.067s-0.381-0.686-0.686-0.914v0zM27.2 14.705c-0.229 0-0.457 0.076-0.61 0.229s-0.229 0.381-0.229 0.61v8.457c0 0.229 0.076 0.457 0.229 0.61v0 0c0.152 0.152 0.381 0.229 0.61 0.229h2.286c0.229 0 0.457-0.076 0.61-0.305v0 0c0.152-0.152 0.229-0.381 0.229-0.61v-8.381c0-0.229-0.076-0.457-0.229-0.61v0c-0.152-0.152-0.381-0.229-0.61-0.229h-2.286z"></path>
</symbol>
<symbol id="icon-slide-down" viewBox="0 0 51 32">
<title>slide-down</title>
<path fill="#797979" style="fill: var(--color2, #797979)" d="M51.2 0l-25.6 32-25.6-32h51.2z"></path>
</symbol>
<symbol id="icon-add" viewBox="0 0 32 32">
<title>add</title>
<path d="M22.309 15.954c0 0.274-0.229 0.503-0.503 0.503h-5.349v5.394c0 0.137-0.046 0.274-0.137 0.366s-0.229 0.137-0.366 0.137h-0.046c-0.137 0-0.274-0.046-0.366-0.137s-0.137-0.229-0.137-0.366v-5.394h-5.394c-0.274 0-0.503-0.229-0.503-0.503v-0.046c0-0.137 0.046-0.274 0.137-0.366s0.229-0.137 0.366-0.137h5.394v-5.394c0-0.274 0.229-0.503 0.503-0.503h0.046c0.274 0 0.503 0.229 0.503 0.503v5.394h5.394c0.274 0 0.503 0.229 0.503 0.503v0.046zM30.080 32h1.92v-1.92c0-0.183-0.137-0.366-0.366-0.366-0.183 0-0.366 0.137-0.366 0.366v1.189h-1.189c-0.183 0-0.366 0.137-0.366 0.366s0.183 0.366 0.366 0.366zM27.291 31.634c0 0.183-0.137 0.366-0.366 0.366h-3.109c-0.183 0-0.366-0.137-0.366-0.366 0-0.183 0.137-0.366 0.366-0.366h3.154c0.183 0 0.32 0.183 0.32 0.366zM21.029 31.634c0 0.183-0.137 0.366-0.366 0.366h-3.109c-0.183 0-0.366-0.137-0.366-0.366 0-0.183 0.137-0.366 0.366-0.366h3.109c0.229 0 0.366 0.183 0.366 0.366zM14.811 31.634c0 0.183-0.137 0.366-0.366 0.366h-3.109c-0.183 0-0.366-0.137-0.366-0.366 0-0.183 0.137-0.366 0.366-0.366h3.109c0.183 0 0.366 0.183 0.366 0.366zM8.549 31.634c0 0.183-0.137 0.366-0.366 0.366h-3.154c-0.183 0-0.366-0.137-0.366-0.366 0-0.183 0.137-0.366 0.366-0.366h3.109c0.229 0 0.411 0.183 0.411 0.366zM2.286 31.634c0 0.229-0.183 0.366-0.366 0.366h-1.92v-1.92c0-0.183 0.137-0.366 0.366-0.366s0.366 0.137 0.366 0.366v1.189h1.189c0.183 0 0.366 0.183 0.366 0.366zM0 26.971v-3.109c0-0.183 0.137-0.366 0.366-0.366s0.366 0.137 0.366 0.366v3.109c0 0.183-0.137 0.366-0.366 0.366s-0.366-0.183-0.366-0.366zM0.731 20.709c0 0.183-0.137 0.366-0.366 0.366s-0.366-0.183-0.366-0.366v-3.109c0-0.183 0.137-0.366 0.366-0.366s0.366 0.137 0.366 0.366v3.109zM0.731 8.183c0 0.183-0.137 0.366-0.366 0.366s-0.366-0.183-0.366-0.366v-3.154c0-0.183 0.137-0.366 0.366-0.366s0.366 0.137 0.366 0.366v3.154zM0.731 14.446c0 0.183-0.137 0.366-0.366 0.366s-0.366-0.183-0.366-0.366v-3.109c0-0.229 0.137-0.366 0.366-0.366s0.366 0.137 0.366 0.366v3.109zM2.286 0.366c0 0.183-0.137 0.366-0.366 0.366h-1.189v1.189c0 0.183-0.183 0.366-0.366 0.366s-0.366-0.183-0.366-0.366v-1.92h1.92c0.183 0 0.366 0.137 0.366 0.366zM21.029 0.366c0 0.183-0.137 0.366-0.366 0.366h-3.109c-0.183 0-0.366-0.137-0.366-0.366s0.183-0.366 0.366-0.366h3.109c0.229 0 0.366 0.137 0.366 0.366zM27.291 0.366c0 0.183-0.137 0.366-0.366 0.366h-3.109c-0.183 0-0.366-0.137-0.366-0.366s0.183-0.366 0.366-0.366h3.154c0.183 0 0.32 0.137 0.32 0.366zM14.811 0.366c0 0.183-0.137 0.366-0.366 0.366h-3.109c-0.183 0-0.366-0.137-0.366-0.366s0.137-0.366 0.32-0.366h3.109c0.229 0 0.411 0.137 0.411 0.366zM8.549 0.366c0 0.183-0.137 0.366-0.366 0.366h-3.154c-0.183 0-0.366-0.137-0.366-0.366s0.183-0.366 0.366-0.366h3.109c0.229 0 0.411 0.137 0.411 0.366zM31.269 1.92v-1.189h-1.189c-0.183 0-0.366-0.137-0.366-0.366s0.183-0.366 0.366-0.366h1.92v1.92c0 0.183-0.137 0.366-0.366 0.366-0.183 0-0.366-0.183-0.366-0.366zM31.269 26.971v-3.109c0-0.183 0.137-0.366 0.366-0.366 0.183 0 0.366 0.137 0.366 0.366v3.109c0 0.183-0.137 0.366-0.366 0.366-0.183-0.046-0.366-0.183-0.366-0.366zM32 20.709c0 0.183-0.137 0.366-0.366 0.366-0.183 0-0.366-0.137-0.366-0.366v-3.109c0-0.183 0.137-0.366 0.366-0.366 0.183 0 0.366 0.137 0.366 0.366v3.109zM32 8.183c0 0.183-0.137 0.366-0.366 0.366-0.183 0-0.366-0.137-0.366-0.366v-3.154c0-0.183 0.137-0.366 0.366-0.366 0.183 0 0.366 0.137 0.366 0.366v3.154zM32 14.446c0 0.183-0.137 0.366-0.366 0.366-0.183 0-0.366-0.137-0.366-0.366v-3.109c0-0.183 0.137-0.366 0.366-0.366 0.183 0 0.366 0.137 0.366 0.366v3.109z"></path>
</symbol>
<symbol id="icon-alipay" viewBox="0 0 32 32">
<title>alipay</title>
<path d="M14.976 21.008c-4.928 6.368-10.976 4.448-11.936 3.984-2.384-0.64-3.184-4.928-0.16-6.368 4.928-1.584 9.376 0.16 12.56 1.744-0.304 0.496-0.464 0.64-0.464 0.64v0zM20.224 19.264c2.224-3.984 3.024-7.792 3.024-7.792h-7.472v-2.864h8.752v-1.12h-8.752v-4.288h-3.984v4.288h-7.952v1.28h7.952v2.864h-6.672v1.28h13.68c0 0.16 0 0.16-0.16 0.48 0 1.424-0.96 3.344-1.744 4.928-10.176-3.984-13.040-1.584-13.84-1.28-6.688 4.768-0.48 10.816 0.64 10.656 7.152 1.584 11.776-1.424 14.944-5.248 0.16 0.16 0.48 0.16 0.64 0.16 2.224 1.264 12.72 6.208 12.72 6.208v-6.048c-1.904-0.16-7.632-2.064-11.776-3.504v0z"></path>
</symbol>
<symbol id="icon-blank" viewBox="0 0 32 32">
<title>blank</title>
<path d="M27.984 24.016v-2.096c0-1.536-2.576-2.352-5.008-2.352s-5.008 0.832-5.008 2.352v7.248c0 1.536 2.576 2.352 5.008 2.352 0.496 0 0.992-0.032 1.504-0.112-0.272-0.24-0.448-0.496-0.528-0.784-0.336 0.032-0.64 0.048-0.96 0.048-2.576 0-4.16-0.88-4.16-1.504 0 0 0-0.016 0-0.032v-1.040l0.096 0.064c0.928 0.592 2.448 0.944 4.064 0.944 0.272 0 0.576-0.016 0.912-0.048v-0.848c-0.32 0.032-0.608 0.048-0.912 0.048-2.576 0-4.16-0.88-4.16-1.504v-1.072l0.096 0.064c0.928 0.592 2.448 0.944 4.064 0.944 0.272 0 0.576-0.016 0.912-0.048v-0.512c0-0.112 0.016-0.224 0.048-0.336-0.32 0.032-0.64 0.048-0.944 0.048-2.576 0-4.16-0.88-4.16-1.504v-1.072l0.096 0.064c0.928 0.592 2.448 0.944 4.064 0.944s3.152-0.352 4.064-0.944l0.096-0.064v0.784c0.272-0.032 0.544-0.032 0.816-0.032zM22.976 23.424c-2.576 0-4.16-0.88-4.16-1.504s1.584-1.504 4.16-1.504c2.576 0 4.16 0.88 4.16 1.504s-1.584 1.504-4.16 1.504zM27.808 24.4c-2.032 0-3.552 0.8-3.552 1.872v3.856c0 1.072 1.536 1.872 3.552 1.872 2.032 0 3.568-0.8 3.568-1.872v-3.856c-0.016-1.072-1.552-1.872-3.568-1.872zM30.512 30.128c0 0.416-1.056 1.024-2.72 1.024s-2.72-0.608-2.72-1.024v-0.704l0.096 0.048c0.672 0.384 1.6 0.592 2.624 0.592s1.952-0.208 2.624-0.592l0.096-0.048v0.704zM30.512 28.192c0 0.416-1.056 1.024-2.72 1.024s-2.72-0.608-2.72-1.024v-0.704l0.096 0.048c0.672 0.384 1.6 0.592 2.624 0.592s1.952-0.208 2.624-0.592l0.096-0.048v0.704zM27.808 27.296c-1.664 0-2.72-0.608-2.72-1.024s1.056-1.024 2.72-1.024c1.664 0 2.72 0.608 2.72 1.024s-1.072 1.024-2.72 1.024zM16.592 29.408h-11.52c-2 0-3.632-1.632-3.632-3.632v-22.032c0-1.472 1.12-2.736 2.592-2.8 1.568-0.080 2.864 1.168 2.864 2.736 0 1.28-0.88 2.352-2.064 2.64-0.192 0.048-0.336 0.208-0.336 0.416v0.048c0 0.24 0.192 0.416 0.416 0.416h19.568v10.272c0 0.224 0.176 0.416 0.416 0.416v0c0.224 0 0.416-0.176 0.416-0.416v-10.32c1.808-0.208 3.216-1.776 3.168-3.648-0.048-1.968-1.712-3.504-3.664-3.504h-20.592c-1.984 0-3.584 1.6-3.584 3.584v22.176c0 2.48 2 4.48 4.48 4.48h11.472c0.224 0 0.416-0.192 0.416-0.416v0c0-0.224-0.192-0.416-0.416-0.416zM24.896 0.848c1.504 0 2.736 1.216 2.736 2.736s-1.216 2.736-2.736 2.736l-18.432 0.080c0.752-0.688 1.216-1.76 1.216-2.816s-0.432-2.032-1.12-2.736h18.336zM19.040 14.496l-0.064-0.016-2.736 3.264 0.048 0.064c0.144 0.208 0.224 0.448 0.224 0.704 0 0.672-0.544 1.216-1.216 1.216s-1.216-0.544-1.216-1.216c0-0.096 0.016-0.208 0.032-0.304l0.016-0.064-2.592-1.824-0.048 0.048c-0.32 0.288-0.8 0.384-1.2 0.24l-0.064-0.016-2.288 2.72 0.032 0.048c0.096 0.176 0.16 0.384 0.16 0.592 0 0.672-0.544 1.216-1.216 1.216s-1.216-0.544-1.216-1.216c0-0.672 0.544-1.216 1.216-1.216 0.176 0 0.336 0.032 0.496 0.112l0.064 0.032 2.256-2.688-0.048-0.064c-0.144-0.208-0.224-0.448-0.224-0.688 0-0.672 0.544-1.216 1.216-1.216s1.216 0.544 1.216 1.216c0 0.080-0.016 0.16-0.032 0.24l-0.016 0.096 2.64 1.856 0.048-0.048c0.32-0.256 0.752-0.336 1.136-0.224l0.064 0.016 2.736-3.264-0.048-0.064c-0.16-0.208-0.24-0.464-0.24-0.72 0-0.672 0.544-1.216 1.216-1.216s1.216 0.544 1.216 1.216c0 0.672-0.544 1.216-1.216 1.216-0.128 0-0.24-0.016-0.352-0.048z"></path>
</symbol>
<symbol id="icon-credit" viewBox="0 0 32 32">
<title>credit</title>
<path d="M0 12v12.672c0 1.104 0.896 2 2 2h28c1.104 0 2-0.896 2-2v-12.672h-32zM5.328 20h10.672v1.328h-10.672v-1.328zM5.328 16h16v1.328h-16v-1.328zM0 7.328v2h32v-2c0-1.104-0.896-2-2-2h-28c-1.104 0-2 0.896-2 2v0 0z"></path>
</symbol>
<symbol id="icon-down" viewBox="0 0 32 32">
<title>down</title>
<path d="M20.528 0.016l-0.032 19.312h4.832l-9.344 12.672-9.312-12.688h4.832l0.032-19.312 8.992 0.016z"></path>
</symbol>
<symbol id="icon-earnings" viewBox="0 0 32 32">
<title>earnings</title>
<path d="M15.616 14.448c0.176 0 0.528-0.176 0.528-0.352l5.328-11.888c0.176-0.352 0-0.704-0.352-0.88-3.376-1.6-7.264-1.776-10.64-0.352-0.352 0.352-0.528 0.704-0.352 1.072 1.056 2.64 4.768 12.032 4.768 12.032 0.176 0.192 0.368 0.368 0.72 0.368zM24.304 4.16h-0.528c-0.176 0-0.352 0.176-0.352 0.352l-5.328 11.888c-0.176 0.352 0 0.704 0.352 0.88l11.344 5.856h0.352c0.176 0 0.528-0.176 0.528-0.352 3.2-6.928 0.368-15.088-6.368-18.624v0zM13.84 17.808c-0.528-1.424-3.728-9.408-4.784-11.888 0-0.176-0.176-0.352-0.352-0.352h-0.544c-4.96 2.304-8.16 7.264-8.16 12.768 0 7.456 6.032 13.664 13.296 13.664 5.136 0 9.76-3.008 11.888-7.632v-0.528c0-0.176-0.176-0.352-0.352-0.352l-10.992-5.68z"></path>
</symbol>
<symbol id="icon-fly-close" viewBox="0 0 32 32">
<title>fly-close</title>
<path d="M18.624 11.872c-0.128 0-0.256-0.048-0.352-0.144l-2.352-2.368-2.368 2.368c-0.096 0.096-0.224 0.144-0.352 0.144s-0.256-0.048-0.352-0.144c-0.096-0.096-0.144-0.224-0.144-0.352s0.048-0.256 0.144-0.352l2.368-2.368-2.368-2.352c-0.192-0.192-0.192-0.512 0-0.704 0.096-0.096 0.224-0.144 0.352-0.144s0.256 0.048 0.352 0.144l2.368 2.368 2.352-2.368c0.096-0.096 0.224-0.144 0.352-0.144s0.256 0.048 0.352 0.144c0.096 0.096 0.144 0.224 0.144 0.352s-0.048 0.256-0.144 0.352l-2.368 2.368 2.368 2.368c0.192 0.192 0.192 0.512 0 0.704-0.096 0.080-0.208 0.128-0.352 0.128zM24.192 5.424c-0.448-1.056-1.088-2.016-1.904-2.832s-1.76-1.456-2.832-1.904c-1.088-0.448-2.256-0.688-3.456-0.688s-2.368 0.24-3.456 0.704c-1.056 0.448-2.016 1.088-2.832 1.904s-1.456 1.76-1.904 2.832c-0.464 1.104-0.704 2.256-0.704 3.456s0.24 2.368 0.704 3.456c0.448 1.056 1.088 2.016 1.904 2.832s1.76 1.456 2.832 1.904c0.96 0.4 1.968 0.64 3.024 0.688v14.224h0.896v-14.224c1.040-0.048 2.064-0.288 3.024-0.688 1.056-0.448 2.016-1.088 2.832-1.904s1.456-1.76 1.904-2.832c0.464-1.104 0.704-2.256 0.704-3.456-0.032-1.2-0.272-2.368-0.736-3.472zM21.76 14.688c-1.536 1.536-3.584 2.384-5.76 2.384s-4.224-0.848-5.76-2.384c-1.536-1.536-2.384-3.584-2.384-5.76 0-4.512 3.664-8.176 8.144-8.176 4.496 0 8.144 3.664 8.144 8.176 0 2.176-0.848 4.224-2.384 5.76z"></path>
</symbol>
<symbol id="icon-funds-detail" viewBox="0 0 32 32">
<title>funds-detail</title>
<path d="M20.592 18.656c0 0.464-0.256 0.704-0.72 0.704h-3.104v2.624c0 0.352-0.048 0.576-0.144 0.704s-0.304 0.192-0.64 0.192c-0.272 0-0.48-0.064-0.608-0.192s-0.192-0.352-0.192-0.704v-2.624h-3.056c-0.464 0-0.72-0.24-0.72-0.704s0.24-0.72 0.688-0.72h3.104v-1.728h-3.072c-0.464 0-0.72-0.24-0.72-0.704s0.24-0.72 0.688-0.72h2.192c-0.448-0.72-0.88-1.44-1.312-2.16-0.464-0.752-0.928-1.504-1.392-2.272-0.32-0.592-0.096-0.912 0.16-1.072 0.192-0.128 0.368-0.176 0.528-0.144s0.32 0.176 0.48 0.432l3.136 5.232h0.272c0.496-0.848 1.008-1.696 1.504-2.56 0.512-0.88 1.024-1.744 1.536-2.608 0.192-0.336 0.384-0.48 0.56-0.48 0.16 0 0.32 0.064 0.496 0.176 0.208 0.128 0.32 0.288 0.336 0.448s-0.048 0.368-0.208 0.608l-2.64 4.4h2.128c0.464 0 0.72 0.256 0.72 0.72s-0.256 0.704-0.72 0.704h-3.104v1.728h3.104c0.48 0 0.72 0.24 0.72 0.72zM16 32c-0.56 0-1.104-0.144-1.6-0.432l-11.088-6.4c-0.992-0.576-1.6-1.632-1.6-2.784v-12.784c0-1.136 0.608-2.208 1.6-2.784l11.088-6.384c0.992-0.576 2.224-0.576 3.2 0l11.088 6.4c0.992 0.576 1.6 1.632 1.6 2.784v12.8c0 1.136-0.608 2.208-1.6 2.784l-11.088 6.4c-0.496 0.256-1.040 0.4-1.6 0.4zM16 1.52c-0.288 0-0.576 0.080-0.848 0.224l-11.088 6.4c-0.512 0.304-0.848 0.864-0.848 1.456v12.8c0 0.592 0.32 1.152 0.848 1.456l11.088 6.4c0.512 0.304 1.168 0.304 1.68 0l11.088-6.4c0.512-0.304 0.848-0.864 0.848-1.456v-12.8c0-0.592-0.32-1.152-0.848-1.456l-11.088-6.4c-0.256-0.144-0.544-0.224-0.832-0.224z"></path>
</symbol>
<symbol id="icon-funds" viewBox="0 0 32 32">
<title>funds</title>
<path d="M12.816 3.168v15.76h16.064c-0.496 2.768-1.856 5.328-3.904 7.312-2.544 2.464-5.904 3.824-9.456 3.824-7.504 0.016-13.6-6.080-13.6-13.568 0-6.576 4.64-12.080 10.896-13.328zM14.736 0.992c-8.208 0.416-14.736 7.2-14.736 15.504 0 8.56 6.944 15.504 15.504 15.504 8.384 0 15.216-6.672 15.488-14.992h-16.256v-16.016zM18.928 2.032c5.664 0.752 10.192 5.296 11.024 11.056h-11.024v-11.056zM17.248 0h-0.24v14.992h14.992c0-8.272-6.608-14.992-14.752-14.992v0z"></path>
</symbol>
<symbol id="icon-gold" viewBox="0 0 32 32">
<title>gold</title>
<path d="M16 0c-8.832 0-16 7.168-16 16s7.168 16 16 16 16-7.168 16-16-7.168-16-16-16zM21.44 14.848v2.192h-3.28l-0.416 0.752v0.672h3.696v2.112h-3.696v2.944h-3.28v-2.944h-3.792v-2.112h3.792v-0.672l-0.416-0.752h-3.28l-0.080-2.192h2.688l-2.688-6.224h3.456l2.192 6.48 2.272-6.48h3.36l-2.688 6.224h2.16z"></path>
</symbol>
<symbol id="icon-golds" viewBox="0 0 32 32">
<title>golds</title>
<path d="M32 18.16c0-2.128-3.152-3.856-7.056-3.856s-7.056 1.728-7.056 3.856c0 0.080 0 0.144 0.016 0.224h-0.016v8.976c0 2.128 3.152 3.856 7.056 3.856s7.056-1.728 7.056-3.856v-8.976h-0.016c0.016-0.080 0.016-0.144 0.016-0.224zM31.248 27.184c0 0.592-0.32 1.152-0.832 1.456-1.36 0.784-3.312 1.456-5.472 1.456s-4.096-0.656-5.472-1.456c-0.512-0.304-0.832-0.848-0.832-1.456v-2.192c1.328 1.056 3.648 1.76 6.304 1.76s4.976-0.704 6.304-1.76v2.192zM31.248 23.44c0 0.24-0.112 0.48-0.32 0.624-1.36 0.928-3.536 1.52-5.984 1.52s-4.624-0.592-5.984-1.52c-0.208-0.144-0.32-0.368-0.32-0.624v-2.528c1.328 1.056 3.648 1.76 6.304 1.76s4.976-0.704 6.304-1.76v2.528zM24.944 21.68c-3.488 0-6.304-1.44-6.304-3.216s2.816-3.216 6.304-3.216 6.304 1.44 6.304 3.216c0 1.776-2.816 3.216-6.304 3.216zM16.848 28.336c-1.696 0.288-2.448 0.304-4.384 0.304-4.384 0-8.896-1.472-10.672-2.912-0.256-0.208-0.464-0.48-0.464-0.8v-2.88c2.352 1.52 6.464 2.352 11.136 2.352 1.664 0 3.056-0.128 4.528-0.368v-1.76c-1.456 0.224-2.864 0.352-4.528 0.352-4.384 0-8.272-0.88-10.672-2.256-0.288-0.16-0.464-0.48-0.464-0.8v-3.248c2.352 1.52 6.464 2.352 11.136 2.352 1.664 0 3.056-0.128 4.528-0.368v-1.936c-1.472 0.24-2.864 0.368-4.528 0.368-4.384 0-8.272-0.88-10.672-2.256-0.288-0.16-0.464-0.48-0.464-0.8v-3.056c2.352 1.52 6.464 2.528 11.152 2.528s8.8-1.008 11.136-2.528v2.848h1.328v-6.832h-0.016c0.016-0.096 0.016-0.208 0.016-0.32 0-3.056-5.584-5.536-12.48-5.536s-12.464 2.48-12.464 5.552c0 0.112 0 0.208 0.016 0.32h-0.016v18.464c0 3.056 5.584 5.36 12.48 5.36 3.008 0 3.456-0.112 5.424-0.576-0.944-0.72-1.056-1.568-1.056-1.568zM12.48 2.16c6.16 0 11.136 2.064 11.136 4.624 0 2.544-4.992 4.624-11.136 4.624-6.16 0-11.136-2.064-11.136-4.624-0.016-2.56 4.976-4.624 11.136-4.624z"></path>
</symbol>
<symbol id="icon-info" viewBox="0 0 32 32">
<title>info</title>
<path d="M3.728 3.216c-2.16 0-3.728 1.552-3.728 3.728v18.128c0 2.16 1.568 3.728 3.728 3.728h24.544c2.16 0 3.728-1.568 3.728-3.728v-18.128c0-2.16-1.568-3.728-3.728-3.728h-24.544zM28.272 27.216h-24.544c-1.36 0-2.128-0.784-2.128-2.128v-18.128c0-1.36 0.8-2.128 2.128-2.128h24.544c1.36 0 2.128 0.784 2.128 2.128v18.128c0 0-0.512 2.128-2.128 2.128v0zM19.424 12.816h5.456c0.416 0 0.752-0.352 0.752-0.784s-0.336-0.784-0.752-0.784h-5.456c-0.416 0-0.752 0.352-0.752 0.784s0.32 0.784 0.752 0.784v0 0zM19.424 17.088h5.456c0.416 0 0.752-0.352 0.752-0.784s-0.336-0.784-0.752-0.784h-5.456c-0.416 0-0.752 0.352-0.752 0.784s0.32 0.784 0.752 0.784v0 0zM27.52 19.744h-8.112c-0.416 0-0.752 0.352-0.752 0.784s0.336 0.784 0.752 0.784h8.112c0.416 0 0.752-0.352 0.752-0.784 0-0.416-0.336-0.784-0.752-0.784v0 0zM15.264 18.688c-0.88-0.944-1.984-1.6-3.232-1.952l-0.112-0.016 0.112-0.048c1.328-0.704 2.16-2.064 2.16-3.536 0-2.224-1.84-4.048-4.080-4.048-2.256 0-4.080 1.808-4.080 4.048 0 1.472 0.832 2.832 2.16 3.536l0.112 0.048-0.112 0.016c-1.232 0.352-2.352 1.024-3.232 1.936-0.896 0.944-1.504 2.112-1.728 3.376-0.048 0.192 0 0.4 0.112 0.544 0.112 0.16 0.288 0.272 0.48 0.32 0.048 0 0.112 0.016 0.144 0.016 0.352 0 0.64-0.256 0.736-0.608 0.496-2.56 2.784-4.192 5.44-4.192s4.912 1.632 5.392 4.208c0.064 0.352 0.368 0.608 0.736 0.608 0.048 0 0.112 0 0.144-0.016 0.4-0.080 0.672-0.464 0.576-0.848-0.24-1.264-0.848-2.448-1.728-3.392v0 0zM10.144 10.688c1.472 0 2.672 1.184 2.672 2.672 0 1.472-1.184 2.672-2.672 2.672-1.472 0-2.672-1.184-2.672-2.672s1.2-2.672 2.672-2.672v0 0z"></path>
</symbol>
<symbol id="icon-less" viewBox="0 0 32 32">
<title>less</title>
<path d="M29.968 14.032h-27.984c-1.104 0-2 0.896-2 2s0.896 2 2 2h27.984c1.104 0 2-0.896 2-2s-0.896-2-2-2z"></path>
</symbol>
<symbol id="icon-moments" viewBox="0 0 32 32">
<title>moments</title>
<path fill="#72cf28" style="fill: var(--color4, #72cf28)" d="M16 0c-8.827 0-16 7.173-16 16s7.173 16 16 16 16-7.173 16-16-7.173-16-16-16zM19.333 8.133c0.693 0.293 1.36 0.693 1.947 1.173 0.24 0.187 0.48 0.4 0.72 0.64 0.533 0.533 0.987 1.12 1.36 1.76 0.080 0.16 0.187 0.32 0.267 0.48l-4.293 4.267c0.027-0.267 0-8.32 0-8.32zM15.040 7.52c0.32-0.027 0.64-0.053 0.96-0.053 0.773 0 1.493 0.107 2.187 0.293 0.187 0.053 0.347 0.107 0.533 0.16v6.053c-0.16-0.213-5.893-5.893-5.893-5.893 0.72-0.267 1.44-0.48 2.213-0.56zM9.333 10.693c0.187-0.24 0.4-0.48 0.64-0.72 0.533-0.533 1.12-0.987 1.76-1.36 0.16-0.080 0.32-0.187 0.48-0.267l4.293 4.293c-0.267-0.053-8.32 0-8.32 0 0.267-0.667 0.667-1.333 1.147-1.947zM7.547 16.96c-0.027-0.32-0.053-0.64-0.053-0.96 0-0.773 0.107-1.493 0.293-2.187 0.053-0.187 0.107-0.347 0.16-0.533h6.053c-0.213 0.16-5.893 5.893-5.893 5.893-0.267-0.72-0.453-1.44-0.56-2.213zM10.72 22.667c-0.24-0.187-0.48-0.4-0.72-0.64-0.533-0.533-0.987-1.12-1.36-1.76-0.080-0.16-0.187-0.32-0.267-0.48l4.293-4.293c-0.053 0.267 0 8.32 0 8.32-0.693-0.267-1.36-0.667-1.947-1.147zM16.96 24.48c-0.32 0.027-0.64 0.053-0.96 0.053-0.773 0-1.493-0.107-2.187-0.293-0.187-0.053-0.347-0.107-0.533-0.16v-6.053c0.16 0.213 5.893 5.893 5.893 5.893-0.72 0.267-1.44 0.48-2.213 0.56zM22.64 21.333c-0.187 0.24-0.4 0.48-0.64 0.72-0.533 0.533-1.12 0.987-1.76 1.36-0.16 0.080-0.32 0.187-0.48 0.267l-4.293-4.32c0.267 0.053 8.32 0 8.32 0-0.293 0.693-0.667 1.36-1.147 1.973zM24.213 18.213c-0.053 0.187-0.107 0.347-0.16 0.533h-6.053c0.213-0.16 5.893-5.893 5.893-5.893 0.293 0.693 0.48 1.44 0.56 2.213 0.027 0.32 0.053 0.64 0.053 0.96 0 0.747-0.107 1.493-0.293 2.187z"></path>
</symbol>
<symbol id="icon-notice" viewBox="0 0 32 32">
<title>notice</title>
<path d="M16.72 1.504c0.608 0.288 0.992 0.88 0.992 1.552v25.904c0 0.656-0.384 1.264-0.992 1.552-0.224 0.112-0.464 0.16-0.72 0.16-0.4 0-0.784-0.144-1.104-0.4l-7.712-6.496c-0.448-0.368-0.496-1.040-0.128-1.472v0c0.368-0.448 1.040-0.496 1.472-0.128l7.072 5.952v-24.24l-8.176 6.88h-5.328v10.48h1.040c0.576 0 1.040 0.464 1.040 1.040v0c0 0.576-0.464 1.040-1.040 1.040h-1.44c-0.928 0-1.696-0.768-1.696-1.696v-11.264c0-0.944 0.768-1.712 1.712-1.712h4.976l8.224-6.928c0.496-0.416 1.216-0.496 1.808-0.224v0zM21.12 8.448c-0.352 0.416-0.32 1.024 0.048 1.408 1.6 1.664 2.512 3.904 2.512 6.24 0 2.256-0.848 4.416-2.352 6.064-0.368 0.4-0.368 1.008-0.016 1.408v0c0.416 0.464 1.136 0.464 1.552 0.016 1.856-2.032 2.896-4.704 2.896-7.488 0-2.896-1.12-5.648-3.104-7.712-0.416-0.448-1.136-0.416-1.536 0.064v0zM24.8 5.344c-0.272 0.464-0.144 1.072 0.288 1.376 2.992 2.112 4.816 5.6 4.816 9.296 0 3.664-1.808 7.136-4.768 9.264-0.432 0.32-0.56 0.912-0.288 1.376v0c0.32 0.528 1.008 0.672 1.504 0.32 3.504-2.512 5.648-6.608 5.648-10.96 0-4.368-2.16-8.48-5.696-10.992-0.496-0.352-1.184-0.208-1.504 0.32v0z"></path>
</symbol>
<symbol id="icon-plus" viewBox="0 0 32 32">
<title>plus</title>
<path d="M30.080 14.080h-12.16v-12.16c0-1.056-0.864-1.92-1.92-1.92v0c-1.056 0-1.92 0.864-1.92 1.92v12.16h-12.16c-1.056 0-1.92 0.864-1.92 1.92v0c0 1.056 0.864 1.92 1.92 1.92h12.16v12.16c0 1.056 0.864 1.92 1.92 1.92v0c1.056 0 1.92-0.864 1.92-1.92v-12.16h12.16c1.056 0 1.92-0.864 1.92-1.92v0c0-1.056-0.864-1.92-1.92-1.92z"></path>
</symbol>
<symbol id="icon-promotion-1" viewBox="0 0 32 32">
<title>promotion-1</title>
<path d="M10.48 28.080c0.16-0.16 0.368-0.24 0.576-0.24s0.416 0.080 0.576 0.24l3.664 3.664c0.16 0.16 0.384 0.256 0.608 0.256s0.448-0.096 0.608-0.256c0.336-0.336 0.336-0.88 0-1.232l-11.232-11.248c-0.128-0.128-0.336-0.128-0.464 0l-4.048 4.048c-0.064 0.064-0.096 0.144-0.096 0.24s0.032 0.176 0.096 0.24l6.784 6.768c0.128 0.128 0.336 0.128 0.464 0l2.464-2.48zM3.024 23.456l1.936-1.936 4.848 4.848-1.936 1.936-4.848-4.848zM22.336 0.864v2.24c0 0.24-0.096 0.448-0.256 0.608s-0.384 0.256-0.608 0.256c0 0 0 0-0.016 0-0.48 0-0.864-0.4-0.864-0.864v-2.24c0-0.48 0.384-0.864 0.864-0.864s0.88 0.384 0.88 0.864zM30.592 0.72c0.16 0.16 0.256 0.384 0.256 0.608s-0.096 0.448-0.256 0.608l-3.296 3.296c-0.16 0.16-0.384 0.256-0.608 0.256 0 0 0 0 0 0-0.24 0-0.448-0.096-0.608-0.256-0.336-0.336-0.32-0.88 0-1.216l3.296-3.296c0.16-0.16 0.384-0.256 0.608-0.256s0.448 0.096 0.608 0.256zM30.8 15.712c0.032-0.144-0.016-0.272-0.112-0.368l-14.72-14.608c-0.080-0.080-0.176-0.112-0.288-0.112-0.032 0-0.064 0-0.080 0.016-0.144 0.032-0.24 0.128-0.288 0.256l-4.64 12.080c-0.16 0.416-0.4 0.8-0.72 1.12l-3.312 3.312c-0.080 0.080-0.112 0.176-0.112 0.288s0.048 0.208 0.112 0.288l11.2 11.2c0.16 0.16 0.384 0.256 0.608 0.256s0.448-0.096 0.608-0.256c0.16-0.16 0.256-0.384 0.256-0.608s-0.096-0.448-0.256-0.608l-4.24-4.24 2.896-2.896 0.048-0.016 12.768-4.768c0.144-0.096 0.24-0.192 0.272-0.336zM27.44 14.96c-0.048 0.192-0.176 0.352-0.368 0.432l-9.344 3.584c-0.352 0.144-0.672 0.336-0.944 0.608l-2.576 2.576c-0.112 0.112-0.256 0.176-0.416 0.176s-0.304-0.064-0.416-0.176l-4.224-4.224c-0.112-0.112-0.176-0.256-0.176-0.416s0.064-0.304 0.176-0.416l2.96-2.96 3.776-9.888c0.064-0.192 0.24-0.32 0.432-0.368s0.4 0.016 0.544 0.16l10.432 10.352c0.112 0.16 0.176 0.368 0.144 0.56zM31.328 9.872c0 0.48-0.384 0.864-0.864 0.864h-2.24c-0.24 0-0.448-0.096-0.608-0.256s-0.256-0.384-0.256-0.624c0-0.48 0.4-0.864 0.864-0.864h2.24c0.48 0.016 0.864 0.4 0.864 0.88z"></path>
</symbol>
<symbol id="icon-promotion-2" viewBox="0 0 32 32">
<title>promotion-2</title>
<path d="M0 10.8c0-0.624 0.208-1.136 0.624-1.568s0.928-0.64 1.52-0.64h2.144v10h-2.144c-0.592 0-1.088-0.208-1.52-0.64-0.416-0.416-0.64-0.976-0.624-1.568v-5.584zM23.808 1.616c0.976-0.976 1.856-1.504 2.656-1.6s1.488 0.128 2.112 0.656c0.608 0.528 1.136 1.312 1.568 2.352 0.464 1.12 0.816 2.272 1.056 3.456 0.272 1.264 0.48 2.592 0.608 3.984s0.208 2.704 0.208 3.968c0 1.248-0.080 2.512-0.256 3.776-0.16 1.2-0.4 2.384-0.752 3.536-0.288 1.008-0.672 1.968-1.152 2.896-0.448 0.832-0.928 1.44-1.472 1.856-0.544 0.4-1.12 0.544-1.744 0.432-0.624-0.128-1.28-0.576-1.952-1.392-0.656-0.8-1.552-1.472-2.672-2.016-1.12-0.528-2.352-0.976-3.664-1.344-1.328-0.368-2.672-0.656-4.032-0.88s-2.608-0.432-3.744-0.608-2.080-0.352-2.832-0.512-1.184-0.368-1.28-0.608v-11.136c0.096-0.336 0.448-0.608 1.072-0.816 0.784-0.256 1.568-0.448 2.384-0.608 0.96-0.192 2.048-0.4 3.264-0.624 1.248-0.24 2.496-0.544 3.712-0.928 1.264-0.4 2.496-0.896 3.696-1.488 1.152-0.624 2.256-1.408 3.216-2.352zM11.568 23.424c0.112 0.288 0.256 0.592 0.4 0.928 0.16 0.368 0.352 0.72 0.544 1.072 0.224 0.4 0.496 0.848 0.816 1.312 0.384 0.56 0.768 1.168 1.168 1.792s0.688 1.2 0.896 1.712c0.208 0.512 0.272 0.928 0.192 1.264s-0.4 0.496-0.976 0.496h-1.936c-0.448 0-0.864-0.096-1.264-0.272-0.416-0.208-0.784-0.48-1.104-0.816-0.4-0.432-0.768-0.912-1.088-1.408-0.432-0.656-0.832-1.344-1.2-2.032-0.512-0.896-0.88-1.696-1.088-2.368-0.176-0.56-0.304-1.12-0.4-1.696-0.096-0.448-0.096-0.912 0-1.344 0.176 0.016 0.4 0.064 0.64 0.144 0.208 0.048 0.448 0.096 0.752 0.176 0.288 0.064 0.64 0.144 1.024 0.208 0.384 0.096 0.736 0.176 1.040 0.272 0.528 0.16 1.056 0.352 1.584 0.56z"></path>
</symbol>
<symbol id="icon-qq" viewBox="0 0 32 32">
<title>qq</title>
<path fill="#1786df" style="fill: var(--color5, #1786df)" d="M16 0c-8.827 0-16 7.173-16 16s7.173 16 16 16 16-7.173 16-16-7.173-16-16-16zM22.16 20.4c0 0-0.293 0.347-1.013-1.093-0.347 0.933-0.907 1.68-1.6 2.267 0.907 0.133 1.467 0.48 1.467 0.933 0 0.613-0.987 1.227-2.4 1.227-1.28 0-2.373-0.4-2.56-0.96 0 0-0.027 0-0.027 0-0.080 0-0.133 0-0.213 0-0.24 0.507-1.12 0.96-2.347 0.96-1.413 0-2.587-0.507-2.587-1.12 0-0.48 0.667-0.88 1.627-1.040-0.72-0.56-1.307-1.333-1.68-2.267v0c-0.693 1.44-1.013 1.093-1.013 1.093-1.093-1.733 0.267-3.893 0.64-4.427 0 0 0 0 0 0s0-0.987 0.613-1.76c0 0 0 0 0 0 0-0.027 0-0.027 0.027-0.053 0 0 0-0.027 0-0.027-0.027-4.187 2.613-5.867 4.88-5.867 2.64 0 5.2 1.787 4.933 5.92 0 0 0 0.027 0 0.027 0.027 0 0.027 0 0.027 0s0.613 1.28 0.56 1.733c0 0 0 0-0.027 0.027 0.427 0.587 1.76 2.693 0.693 4.427z"></path>
</symbol>
<symbol id="icon-question" viewBox="0 0 32 32">
<title>question</title>
<path d="M27.312 4.688c-3.024-3.024-7.040-4.688-11.312-4.688s-8.288 1.664-11.312 4.688c-3.024 3.024-4.688 7.040-4.688 11.312s1.664 8.288 4.688 11.312c3.024 3.024 7.040 4.688 11.312 4.688s8.288-1.664 11.312-4.688c3.024-3.024 4.688-7.040 4.688-11.312s-1.664-8.288-4.688-11.312zM29.84 16c0 3.696-1.44 7.168-4.048 9.776s-6.080 4.048-9.776 4.048-7.168-1.44-9.776-4.048c-2.608-2.608-4.048-6.080-4.048-9.776s1.44-7.168 4.048-9.776c2.608-2.608 6.080-4.048 9.776-4.048s7.168 1.44 9.776 4.048c2.608 2.608 4.048 6.080 4.048 9.776zM14.64 22.464h2.64v3.52h-2.64v-3.52zM22.080 11.872c0 1.568-1.056 3.216-3.12 4.912-1.2 0.976-1.808 2.112-1.808 3.376l-0.016 0.56h-2.336l0.016-0.352c0-1.264 0.128-2.192 0.368-2.768s0.8-1.264 1.664-2.032l0.88-0.784c1.152-1.040 1.728-2.064 1.728-3.072 0-0.848-0.304-1.568-0.928-2.112-0.608-0.544-1.408-0.832-2.352-0.832-1.232 0-2.176 0.368-2.8 1.072-0.624 0.72-0.928 1.808-0.928 3.248v0.096h-2.48v-0.096c0-1.968 0.576-3.536 1.696-4.688 1.136-1.136 2.688-1.728 4.624-1.728 1.712 0 3.12 0.48 4.176 1.424v0c1.088 0.992 1.616 2.24 1.616 3.776z"></path>
</symbol>
<symbol id="icon-search" viewBox="0 0 32 32">
<title>search</title>
<path d="M22.4 6.672c-4.336-4.336-11.376-4.336-15.712 0s-4.336 11.376 0 15.712c2.016 2.016 4.784 3.248 7.856 3.248s5.84-1.248 7.856-3.248c2.016-2.016 3.248-4.784 3.248-7.856s-1.248-5.84-3.248-7.856v0zM4.256 24.816c-2.624-2.624-4.256-6.272-4.256-10.288 0-8.032 6.512-14.544 14.544-14.544s14.544 6.512 14.544 14.544c0 4.016-1.632 7.648-4.256 10.288-2.624 2.624-6.272 4.256-10.272 4.256-4.032 0-7.664-1.632-10.304-4.256v0zM31.408 31.408c-0.352 0.352-0.848 0.576-1.408 0.576s-1.040-0.224-1.408-0.576l-2.8-2.8c-0.352-0.352-0.576-0.848-0.576-1.408 0-1.088 0.896-1.984 1.984-1.984 0.544 0 1.040 0.224 1.408 0.576l2.8 2.8c0.368 0.352 0.576 0.848 0.576 1.408 0.016 0.56-0.208 1.056-0.576 1.408v0z"></path>
</symbol>
<symbol id="icon-step-1" viewBox="0 0 32 32">
<title>step-1</title>
<path d="M16 0c-8.844 0-16 7.156-16 16s7.156 16 16 16 16-7.156 16-16-7.156-16-16-16zM16 31.127c-8.349 0-15.127-6.778-15.127-15.127s6.778-15.127 15.127-15.127 15.127 6.778 15.127 15.127-6.778 15.127-15.127 15.127zM23.273 12.567c0 1.018-0.407 1.978-1.105 2.676l-1.309 1.222c-0.145 0.116-0.32 0.204-0.495 0.175-0.175 0-0.349-0.087-0.495-0.233-0.116-0.145-0.204-0.32-0.175-0.495 0-0.175 0.087-0.349 0.233-0.495l1.309-1.193c0.436-0.436 0.698-1.047 0.698-1.687s-0.262-1.251-0.698-1.716l-0.058-0.058c-0.931-0.931-2.473-0.931-3.433 0l-2.793 2.793c-0.96 0.96-0.989 2.269-0.058 3.2 0.262 0.262 0.262 0.698 0 0.989-0.116 0.116-0.291 0.204-0.495 0.204-0.175 0-0.349-0.058-0.495-0.204-1.484-1.484-1.455-3.636 0.058-5.149l2.793-2.793c0.727-0.727 1.658-1.105 2.676-1.105 0 0 0 0 0 0 1.018 0 1.978 0.407 2.676 1.105l0.058 0.058c0.698 0.756 1.105 1.687 1.105 2.705zM18.182 14.051c1.455 1.455 1.425 3.782-0.116 5.295l-2.793 2.793c-0.727 0.727-1.658 1.105-2.676 1.105 0 0 0 0 0 0-1.018 0-1.978-0.407-2.676-1.105l-0.058-0.058c-0.727-0.727-1.105-1.658-1.105-2.676s0.407-1.978 1.105-2.676l1.309-1.222c0.145-0.116 0.32-0.204 0.495-0.175 0.175 0 0.349 0.087 0.495 0.233 0.116 0.145 0.204 0.32 0.175 0.495 0 0.175-0.087 0.349-0.233 0.495l-1.28 1.193c-0.436 0.436-0.698 1.047-0.698 1.687s0.262 1.251 0.698 1.716l0.058 0.058c0.931 0.931 2.473 0.931 3.433 0l2.793-2.793c0.96-0.96 1.018-2.444 0.116-3.345l-0.058-0.058c-0.058-0.058-0.262-0.233-0.465-0.291-0.378-0.116-0.582-0.495-0.465-0.844 0.116-0.378 0.495-0.582 0.844-0.465 0.465 0.145 0.902 0.465 1.047 0.64h0.058z"></path>
</symbol>
<symbol id="icon-step-2" viewBox="0 0 32 32">
<title>step-2</title>
<path d="M16 0c-8.844 0-16 7.156-16 16s7.156 16 16 16 16-7.156 16-16-7.156-16-16-16zM16 31.127c-8.349 0-15.127-6.778-15.127-15.127s6.778-15.127 15.127-15.127 15.127 6.778 15.127 15.127-6.778 15.127-15.127 15.127zM13.265 15.767c0.349 0.378 0.815 0.669 1.28 0.844 0.495 0.204 0.989 0.291 1.513 0.291s1.018-0.087 1.484-0.291c0.465-0.204 0.902-0.524 1.28-0.844 0.378-0.349 0.669-0.815 0.844-1.28 0.204-0.495 0.291-0.989 0.291-1.513s-0.087-1.018-0.291-1.513c-0.204-0.465-0.524-0.902-0.844-1.28-0.349-0.378-0.815-0.669-1.28-0.844-0.931-0.378-2.065-0.378-2.996 0-0.465 0.204-0.902 0.524-1.28 0.844-0.378 0.349-0.669 0.815-0.844 1.28-0.204 0.495-0.291 0.989-0.291 1.513s0.087 1.018 0.291 1.513c0.175 0.495 0.495 0.96 0.844 1.28v0zM13.353 11.927c0.145-0.349 0.378-0.669 0.64-0.931 0.291-0.262 0.582-0.465 0.96-0.611 0.349-0.145 0.756-0.204 1.105-0.204s0.756 0.087 1.105 0.204c0.349 0.145 0.669 0.349 0.96 0.611 0.262 0.291 0.495 0.582 0.64 0.931s0.233 0.727 0.233 1.076c0 0.349-0.087 0.756-0.233 1.076-0.145 0.349-0.378 0.669-0.64 0.931-0.291 0.262-0.582 0.465-0.96 0.611-0.698 0.291-1.542 0.291-2.24 0-0.349-0.145-0.669-0.349-0.96-0.611-0.262-0.291-0.495-0.582-0.64-0.931s-0.233-0.727-0.233-1.076c0.029-0.32 0.116-0.698 0.262-1.076v0zM23.535 22.865c-0.029-0.291-0.116-0.582-0.349-1.076-0.291-0.582-0.844-1.687-1.716-2.56-0.698-0.727-1.6-1.338-2.56-1.716-0.116-0.029-0.349-0.116-0.378-0.116l-0.029-0.029-0.029 0.029-1.775 3.578-0.175-0.233 0.524-1.542-0.029-0.029-1.018-1.425-0.029-0.058-0.029 0.058-1.076 1.425-0.029 0.029v0.029l0.582 1.571-0.262 0.291-1.629-3.636-0.029-0.029-0.029 0.029c-0.116 0.029-0.233 0.087-0.349 0.116-0.96 0.436-1.862 1.018-2.56 1.716-0.727 0.698-1.338 1.6-1.716 2.56-0.116 0.349-0.262 0.698-0.349 1.076l-0.029 0.058h0.902l0.029-0.029c0.058-0.175 0.116-0.349 0.204-0.495 0.436-1.047 0.902-1.833 1.425-2.327l0.116-0.116c0.524-0.495 1.135-1.047 2.007-1.396l1.862 4.102 0.029 0.116 0.029-0.116 0.756-1.804v-0.029l-0.349-1.6 0.524-0.844 0.524 0.815-0.349 1.629v0.029l0.582 1.804 0.029 0.116 0.058-0.116 1.978-4.102c0.902 0.524 1.455 0.931 2.007 1.484 0.873 0.902 1.222 1.833 1.425 2.327 0.058 0.145 0.116 0.32 0.204 0.495l0.029 0.029h1.076l-0.029-0.087z"></path>
</symbol>
<symbol id="icon-step-3" viewBox="0 0 32 32">
<title>step-3</title>
<path d="M16 0c-8.844 0-16 7.156-16 16s7.156 16 16 16 16-7.156 16-16-7.156-16-16-16zM16 31.127c-8.349 0-15.127-6.778-15.127-15.127s6.778-15.127 15.127-15.127 15.127 6.778 15.127 15.127-6.778 15.127-15.127 15.127zM9.309 18.88h1.891v4.218h-1.891v-4.218zM13.091 23.098h1.891v-5.295h-1.891v5.295zM17.105 23.098h1.891v-5.353h-1.891v5.353zM21.062 23.098h1.891v-8.029h-1.891v8.029zM21.295 8.902l0.989 1.309-5.033 3.636-2.036-2.356-7.622 5.527 1.047 1.164 6.313-4.509 2.036 2.356 6.371-4.567 0.902 1.251 0.204-3.142-3.171-0.669z"></path>
</symbol>
<symbol id="icon-step-4" viewBox="0 0 32 32">
<title>step-4</title>
<path d="M16 0c-8.844 0-16 7.156-16 16s7.156 16 16 16 16-7.156 16-16-7.156-16-16-16zM16 31.127c-8.349 0-15.127-6.778-15.127-15.127s6.778-15.127 15.127-15.127 15.127 6.778 15.127 15.127-6.778 15.127-15.127 15.127z"></path>
<path d="M16.349 8.727c0.989 0.029 2.153 0.349 3.229 0.96 0.175 0.116 0.262 0.291 0.233 0.495s-0.175 0.349-0.378 0.378c-0.116 0.029-0.233-0.029-0.32-0.087-0.582-0.349-1.222-0.582-1.891-0.698-2.822-0.582-5.76 0.902-6.982 3.52-0.495 1.076-0.698 2.182-0.582 3.345 0.262 2.793 2.385 5.12 5.149 5.644 3.375 0.64 6.633-1.513 7.389-4.858 0.349-1.542 0.145-3.025-0.64-4.451-0.058-0.145-0.145-0.262-0.116-0.436 0.029-0.204 0.204-0.32 0.378-0.349s0.349 0.058 0.465 0.233c0.262 0.465 0.495 0.96 0.64 1.484 1.222 4.044-1.222 8.262-5.324 9.222-3.869 0.902-7.796-1.542-8.698-5.411-0.931-3.869 1.425-7.767 5.295-8.727 0.611-0.204 1.251-0.262 2.153-0.262v0z"></path>
<path d="M15.505 16.96v-0.989h-0.116c-0.611 0-1.222 0-1.833 0-0.349 0-0.553-0.233-0.524-0.553 0.029-0.262 0.233-0.436 0.524-0.436 0.524 0 1.076 0 1.6 0h0.145c-0.029-0.029-0.058-0.058-0.087-0.087-0.669-0.669-1.338-1.338-2.036-2.036-0.175-0.175-0.233-0.436-0.087-0.64 0.145-0.262 0.495-0.32 0.727-0.145 0.029 0.029 0.058 0.058 0.116 0.087 0.669 0.669 1.338 1.338 2.007 2.007 0.029 0.029 0.029 0.058 0.058 0.087 0 0 0.029 0 0.029 0 0.029-0.029 0.029-0.058 0.058-0.087 0.669-0.669 1.338-1.338 2.007-2.007 0.145-0.145 0.32-0.204 0.495-0.145 0.378 0.087 0.495 0.553 0.233 0.844-0.204 0.204-0.407 0.407-0.611 0.611-0.465 0.465-0.96 0.96-1.425 1.425-0.029 0.029-0.058 0.058-0.087 0.058l0.029 0.029h0.116c0.553 0 1.076 0 1.629 0 0.291 0 0.465 0.145 0.524 0.407s-0.116 0.553-0.407 0.582c-0.058 0-0.116 0-0.175 0-0.611 0-1.193 0-1.804 0h-0.116v0.989h0.116c0.611 0 1.251 0 1.862 0 0.233 0 0.436 0.175 0.465 0.407 0.058 0.233-0.058 0.465-0.262 0.553-0.087 0.029-0.175 0.058-0.262 0.058-0.611 0-1.222 0-1.833 0h-0.116v0.145c0 0.611 0 1.251 0 1.862 0 0.204-0.116 0.378-0.291 0.465s-0.378 0.058-0.524-0.087c-0.116-0.116-0.175-0.262-0.175-0.407 0-0.611 0-1.222 0-1.833v-0.116h-0.116c-0.64 0-1.251 0-1.891 0-0.204 0-0.407-0.145-0.465-0.32-0.058-0.204 0-0.407 0.145-0.553 0.087-0.087 0.233-0.116 0.349-0.116 0.611 0 1.222 0 1.833 0 0.087-0.058 0.116-0.058 0.175-0.058v0z"></path>
</symbol>
<symbol id="icon-thin-close" viewBox="0 0 32 32">
<title>thin-close</title>
<path d="M0.464 31.536c-0.624-0.624-0.624-1.648 0-2.272l13.264-13.264-13.264-13.264c-0.624-0.624-0.624-1.648 0-2.272s1.648-0.624 2.272 0l13.264 13.264 13.264-13.264c0.624-0.624 1.648-0.624 2.272 0 0.304 0.304 0.464 0.704 0.464 1.136s-0.16 0.832-0.464 1.136l-13.264 13.264 13.264 13.264c0.624 0.624 0.624 1.648 0 2.272s-1.648 0.624-2.272 0l-13.264-13.264-13.264 13.264c-0.624 0.624-1.648 0.624-2.272 0z"></path>
</symbol>
<symbol id="icon-ticket" viewBox="0 0 32 32">
<title>ticket</title>
<path d="M0 7.36c0-0.784 0.128-1.328 0.368-1.664s0.784-0.496 1.632-0.496h5.2v21.6h-2.24c-0.592 0-1.184 0-1.776-0.016-0.4-0.016-0.8-0.016-1.2-0.016-0.736 0.032-1.248-0.096-1.552-0.384s-0.448-0.832-0.448-1.648v-6.224c0-0.32 0.048-0.56 0.144-0.72s0.288-0.272 0.592-0.32c0.112 0 0.256-0.048 0.448-0.128s0.384-0.224 0.576-0.416c0.192-0.192 0.352-0.432 0.496-0.736 0.128-0.304 0.208-0.672 0.208-1.104 0-0.656-0.176-1.184-0.512-1.552s-0.704-0.592-1.072-0.656c-0.304-0.064-0.512-0.144-0.656-0.288-0.128-0.128-0.208-0.352-0.208-0.672v-4.56zM30.224 18.336c-0.032 0.496 0.224 0.88 0.768 1.168 0.24 0.112 0.448 0.288 0.592 0.544 0.144 0.24 0.224 0.512 0.24 0.784s-0.032 0.512-0.144 0.736c-0.112 0.208-0.288 0.368-0.528 0.448-0.32 0.080-0.576 0.24-0.752 0.48-0.176 0.224-0.272 0.48-0.288 0.736s0.048 0.512 0.208 0.784c0.144 0.256 0.384 0.48 0.72 0.64 0.224 0.112 0.368 0.304 0.464 0.544s0.128 0.48 0.096 0.72c-0.032 0.224-0.096 0.432-0.224 0.624s-0.288 0.288-0.512 0.288h-21.28v-21.6h21.536c0.224 0 0.384 0.096 0.512 0.288s0.192 0.4 0.208 0.624c0.016 0.224-0.032 0.464-0.144 0.688s-0.288 0.384-0.528 0.48c-0.24 0.080-0.448 0.224-0.592 0.432-0.144 0.192-0.24 0.432-0.272 0.672s0.032 0.48 0.16 0.72c0.144 0.224 0.368 0.4 0.688 0.512 0.24 0.112 0.448 0.288 0.592 0.512s0.224 0.464 0.24 0.72c0.016 0.24-0.048 0.48-0.16 0.688-0.128 0.208-0.32 0.368-0.592 0.448-0.32 0.080-0.576 0.256-0.752 0.496s-0.272 0.496-0.288 0.752c-0.016 0.256 0.048 0.528 0.208 0.784 0.144 0.256 0.368 0.448 0.672 0.56 0.272 0.112 0.48 0.288 0.608 0.512 0.144 0.224 0.208 0.48 0.224 0.736s-0.032 0.512-0.144 0.736c-0.112 0.224-0.272 0.4-0.496 0.512-0.656 0.32-1.008 0.736-1.040 1.232zM15.696 9.936c0.368 0.544 0.704 1.168 1.024 1.856l0.768-0.352c-0.272-0.64-0.592-1.216-0.96-1.776l-0.832 0.272zM25.664 17.408c-1.536-0.72-2.624-1.536-3.296-2.432h2.896v-0.864h-6.56c0.272-0.464 0.512-0.944 0.72-1.456h5.104v-0.848h-2.080c0.448-0.56 0.816-1.184 1.12-1.92l-0.784-0.288c-0.272 0.704-0.624 1.312-1.040 1.84l0.672 0.384h-2.672c0.224-0.704 0.4-1.408 0.512-2.144l-0.944-0.112c-0.128 0.784-0.304 1.552-0.544 2.256h-4.144v0.848h3.808c-0.224 0.512-0.496 0.992-0.784 1.456h-3.728v0.864h3.040c-0.912 1.024-2.080 1.84-3.472 2.448l0.528 0.8c0.768-0.368 1.488-0.816 2.16-1.328v0.72h1.856c-0.24 0.784-0.56 1.44-1.024 1.936-0.528 0.544-1.312 1.040-2.336 1.488l0.592 0.752c1.136-0.544 1.984-1.152 2.544-1.808 0.464-0.592 0.832-1.392 1.088-2.384h3.232c-0.048 1.344-0.176 2.224-0.352 2.64-0.192 0.4-0.56 0.592-1.104 0.592-0.56 0-1.136-0.016-1.76-0.032l0.256 0.88h1.968c0.544-0.032 0.944-0.192 1.184-0.464 0.256-0.288 0.432-0.8 0.544-1.552 0.096-0.72 0.16-1.68 0.192-2.832 0.624 0.496 1.28 0.944 1.968 1.328l0.64-0.768zM16.4 16.752h6.576c-0.688-0.576-1.2-1.168-1.568-1.776h-3.296c-0.512 0.656-1.072 1.248-1.712 1.776z"></path>
</symbol>
<symbol id="icon-trash-cans" viewBox="0 0 32 32">
<title>trash-cans</title>
<path d="M31.152 4.032h-8.064l-3.12-3.056c-0.16-0.16-0.368-0.24-0.592-0.24h-6.736c-0.224 0-0.432 0.080-0.592 0.24l-3.136 3.056h-8.064c-0.464 0-0.848 0.368-0.848 0.832 0 0.448 0.384 0.832 0.848 0.832h8.416c0.224 0 0.432-0.080 0.592-0.24l3.12-3.056h6.032l3.136 3.040c0.16 0.16 0.368 0.24 0.592 0.24h8.416c0.464 0 0.848-0.368 0.848-0.832 0-0.448-0.384-0.816-0.848-0.816v0zM27.792 8.976c-0.464 0-0.848 0.368-0.848 0.832v18.16c0 0.912-0.752 1.648-1.68 1.648h-18.528c-0.928 0-1.68-0.736-1.68-1.648v-18.16c0-0.448-0.368-0.832-0.848-0.832-0.464 0-0.848 0.368-0.848 0.832v18.16c0 1.824 1.504 3.296 3.376 3.296h18.528c1.856 0 3.376-1.488 3.376-3.296v-18.16c0-0.448-0.384-0.832-0.848-0.832v0zM12.624 25.488v-15.68c0-0.448-0.368-0.832-0.848-0.832-0.464 0-0.848 0.368-0.848 0.832v15.68c0 0.448 0.384 0.832 0.848 0.832 0.48 0 0.848-0.368 0.848-0.832v0zM21.056 25.488v-15.68c0-0.448-0.368-0.832-0.848-0.832-0.464 0-0.848 0.368-0.848 0.832v15.68c0 0.448 0.368 0.832 0.848 0.832 0.464 0 0.848-0.368 0.848-0.832v0z"></path>
</symbol>
<symbol id="icon-up" viewBox="0 0 32 32">
<title>up</title>
<path d="M11.52 32l-0.032-19.312h-4.832l9.312-12.688 9.344 12.672h-4.832l0.032 19.312-8.992 0.016z"></path>
</symbol>
<symbol id="icon-warning" viewBox="0 0 32 32">
<title>warning</title>
<path d="M16.016 32v0c-2.208 0-4.288-0.416-6.24-1.264s-3.648-1.984-5.088-3.424-2.576-3.136-3.424-5.088-1.264-4.032-1.264-6.24 0.416-4.288 1.264-6.224c0.848-1.952 1.984-3.632 3.424-5.072s3.136-2.576 5.088-3.424 4.032-1.264 6.24-1.264 4.288 0.416 6.224 1.264c1.952 0.848 3.632 1.984 5.072 3.424s2.576 3.136 3.424 5.072c0.848 1.936 1.264 4.016 1.264 6.224s-0.416 4.288-1.264 6.24c-0.848 1.952-1.984 3.648-3.424 5.088s-3.136 2.576-5.072 3.424c-1.936 0.848-4.016 1.264-6.224 1.264v0zM17.952 18.192l0.032-11.92c0-0.576-0.192-1.040-0.576-1.392s-0.848-0.528-1.392-0.528-1.008 0.176-1.392 0.512c-0.384 0.352-0.576 0.8-0.576 1.376v11.952c0 0.56 0.192 1.040 0.576 1.44s0.848 0.592 1.392 0.592 1.008-0.192 1.376-0.592c0.368-0.384 0.56-0.864 0.56-1.44v0zM14.224 23.36c-0.496 0.48-0.752 1.072-0.752 1.76s0.256 1.28 0.752 1.76c0.512 0.496 1.104 0.736 1.792 0.736s1.264-0.24 1.76-0.736c0.496-0.48 0.736-1.072 0.736-1.76s-0.256-1.264-0.736-1.76-1.072-0.736-1.76-0.736c-0.688 0-1.28 0.24-1.792 0.736z"></path>
</symbol>
<symbol id="icon-wechat" viewBox="0 0 32 32">
<title>wechat</title>
<path fill="#65b953" style="fill: var(--color8, #65b953)" d="M17.947 16c-0.347 0-0.667 0.32-0.667 0.693 0 0.32 0.347 0.613 0.667 0.613 0.507 0 0.853-0.32 0.853-0.613 0-0.4-0.347-0.693-0.853-0.693v0z"></path>
<path fill="#65b953" style="fill: var(--color8, #65b953)" d="M15.733 12.747c0.533 0 0.853-0.347 0.853-0.853 0-0.533-0.347-0.853-0.853-0.853s-0.987 0.32-0.987 0.853c0 0.507 0.48 0.853 0.987 0.853v0z"></path>
<path fill="#65b953" style="fill: var(--color8, #65b953)" d="M16 0c-8.827 0-16 7.173-16 16s7.173 16 16 16 16-7.173 16-16-7.173-16-16-16v0zM13.227 19.733c-0.88 0-1.547-0.133-2.373-0.373l-2.427 1.227 0.693-2.053c-1.707-1.227-2.72-2.747-2.72-4.587 0-3.253 3.067-5.76 6.827-5.76 3.307 0 6.267 1.973 6.853 4.747-0.24-0.053-0.453-0.080-0.64-0.080-3.253 0-5.787 2.453-5.787 5.387 0 0.507 0.080 0.96 0.187 1.44-0.213 0.053-0.427 0.053-0.613 0.053v0zM23.227 22.080l0.48 1.733-1.813-1.040c-0.693 0.133-1.36 0.347-2.053 0.347-3.227 0-5.76-2.213-5.76-4.933 0-2.747 2.533-4.933 5.76-4.933 3.013 0 5.76 2.213 5.76 4.933 0 1.547-1.040 2.907-2.373 3.893v0z"></path>
<path fill="#65b953" style="fill: var(--color8, #65b953)" d="M10.987 11.067c-0.507 0-1.040 0.32-1.040 0.853 0 0.507 0.533 0.853 1.040 0.853 0.48 0 0.853-0.347 0.853-0.853 0-0.533-0.373-0.853-0.853-0.853v0z"></path>
<path fill="#65b953" style="fill: var(--color8, #65b953)" d="M21.707 16c-0.373 0-0.667 0.32-0.667 0.693 0 0.32 0.32 0.613 0.667 0.613 0.48 0 0.853-0.32 0.853-0.613 0-0.4-0.373-0.693-0.853-0.693v0z"></path>
</symbol>
<symbol id="icon-weibo" viewBox="0 0 32 32">
<title>weibo</title>
<path fill="#e52e1d" style="fill: var(--color9, #e52e1d)" d="M17.76 16c-0.987-0.533-2.16-0.773-3.6-0.693s-2.613 0.427-3.6 1.093c-0.987 0.667-1.467 1.467-1.467 2.4s0.48 1.707 1.467 2.32c0.987 0.613 2.187 0.88 3.573 0.827v0c1.387-0.053 2.56-0.48 3.547-1.227s1.493-1.6 1.493-2.533c0.027-0.933-0.453-1.653-1.413-2.187zM16.4 19.173c-0.053 0.32-0.187 0.587-0.373 0.827-0.453 0.587-1.067 0.96-1.787 1.12-0.747 0.16-1.547 0.027-2.4-0.373-0.133-0.080-0.267-0.187-0.373-0.293s-0.187-0.213-0.213-0.32c-0.053-0.107-0.080-0.213-0.107-0.32s-0.027-0.187-0.027-0.24v-0.080l-0.027-0.16c0-0.080 0-0.213 0.027-0.373 0-0.16 0.053-0.347 0.080-0.533 0.053-0.187 0.133-0.4 0.24-0.587 0.107-0.213 0.267-0.4 0.427-0.56 0.16-0.187 0.4-0.32 0.693-0.48 0.293-0.133 0.64-0.213 1.013-0.267v0c0.533-0.053 1.013-0.027 1.413 0.133s0.72 0.373 0.933 0.64c0.213 0.267 0.347 0.587 0.427 0.907 0.107 0.32 0.133 0.64 0.053 0.96zM16 0c-8.827 0-16 7.173-16 16s7.173 16 16 16 16-7.173 16-16-7.173-16-16-16zM21.707 19.413c-0.373 0.773-0.987 1.44-1.893 2-0.88 0.56-1.84 0.96-2.88 1.173-1.040 0.24-2.027 0.293-2.987 0.213-0.587-0.027-1.147-0.107-1.68-0.213s-1.067-0.267-1.653-0.48c-0.56-0.213-1.067-0.48-1.493-0.773s-0.8-0.693-1.093-1.2c-0.293-0.507-0.507-1.067-0.587-1.68v-0.4c0-0.293 0.080-0.72 0.293-1.28s0.533-1.12 0.96-1.68l0.213-0.32c0.16-0.187 0.373-0.453 0.667-0.773s0.613-0.64 0.933-0.96c0.347-0.32 0.747-0.64 1.227-0.96 0.48-0.293 0.933-0.533 1.387-0.693 0.373-0.133 0.72-0.213 1.013-0.24s0.533 0 0.72 0.053 0.347 0.16 0.48 0.267 0.213 0.24 0.293 0.4c0.053 0.16 0.107 0.32 0.133 0.453s0.027 0.293 0.027 0.427c0 0.053-0.027 0.16-0.053 0.267s-0.053 0.187-0.053 0.24 0 0.107-0.027 0.187c0 0.080 0 0.107 0.027 0.133s0.053 0.027 0.107 0.053c0.053 0.027 0.107 0.027 0.187 0 0.080 0 0.187-0.027 0.32-0.080l0.267-0.107c0.16-0.053 0.373-0.133 0.64-0.213s0.533-0.133 0.827-0.187c0.293-0.053 0.587-0.053 0.88 0s0.533 0.16 0.72 0.347c0.107 0.107 0.187 0.213 0.24 0.347s0.107 0.24 0.107 0.373c0.027 0.107 0.027 0.24 0 0.347s-0.027 0.24-0.053 0.32c-0.027 0.080-0.053 0.16-0.080 0.267-0.027 0.080-0.053 0.133-0.080 0.16 0 0.027-0.027 0.053-0.027 0.053l-0.027 0.213c-0.027 0.053-0.027 0.133 0.027 0.213s0.187 0.133 0.373 0.187v0c0.16 0.027 0.347 0.080 0.533 0.187 0.213 0.080 0.427 0.24 0.64 0.427 0.24 0.187 0.4 0.427 0.56 0.667 0.133 0.267 0.213 0.587 0.213 0.987s-0.133 0.827-0.347 1.28zM21.040 13.627c-0.080-0.88-0.613-1.2-1.627-0.987-0.133 0-0.24-0.053-0.32-0.133s-0.16-0.187-0.16-0.32c0-0.080 0.027-0.16 0.080-0.213 0.053-0.080 0.107-0.133 0.16-0.187s0.133-0.080 0.24-0.080c0.293-0.053 0.613-0.053 0.987 0.027 1.2 0.213 1.707 1.067 1.573 2.533 0 0.027 0 0.053-0.027 0.053 0 0.053-0.027 0.133-0.080 0.187-0.027 0.053-0.080 0.107-0.16 0.133-0.053 0.027-0.133 0.053-0.213 0.053v0c-0.133 0-0.24-0.053-0.32-0.133s-0.133-0.213-0.133-0.32c0.027-0.187 0.027-0.373 0-0.613zM24.533 13.467c-0.027 0.453-0.107 0.933-0.267 1.44-0.053 0.453-0.267 0.667-0.64 0.667-0.133 0-0.24-0.027-0.347-0.053s-0.187-0.080-0.24-0.16c-0.080-0.053-0.107-0.16-0.107-0.267 0-0.053 0-0.107 0.027-0.187 0-0.080 0.027-0.133 0.027-0.187s0.027-0.107 0.027-0.133c0-0.053 0.027-0.080 0.027-0.107 0 0 0-0.027 0-0.027 0.213-0.72 0.133-1.467-0.187-2.213-0.16-0.267-0.373-0.507-0.587-0.72-0.24-0.213-0.453-0.373-0.693-0.48s-0.453-0.213-0.693-0.293c-0.24-0.080-0.427-0.133-0.613-0.133-0.187-0.027-0.347-0.027-0.48-0.027s-0.213 0-0.267 0.027c-0.053 0.027-0.107 0.027-0.16 0.053s-0.080 0-0.133 0c-0.053 0-0.107 0.027-0.133 0.027-0.053 0-0.080 0.027-0.080 0.027h-0.080c-0.187 0-0.347-0.053-0.48-0.187s-0.187-0.293-0.187-0.48c0-0.133 0.053-0.267 0.133-0.4s0.213-0.213 0.347-0.24l0.053-0.053c0 0 0.027-0.027 0.027-0.027 0.96-0.187 1.733-0.213 2.293-0.080v0c0.267 0.053 0.533 0.16 0.8 0.267s0.507 0.24 0.8 0.427c0.267 0.187 0.533 0.373 0.747 0.587s0.427 0.48 0.587 0.773c0.16 0.293 0.293 0.64 0.373 0.987 0.080 0.32 0.133 0.72 0.107 1.173zM13.787 19.067c0.027 0.080 0.027 0.16 0.027 0.267 0 0.133-0.053 0.267-0.133 0.4s-0.187 0.24-0.347 0.32c-0.133 0.080-0.293 0.133-0.48 0.16v0c-0.080 0-0.16 0.027-0.213 0-0.080 0-0.133-0.027-0.187-0.027s-0.107-0.053-0.187-0.080c-0.053-0.027-0.107-0.053-0.133-0.107s-0.080-0.080-0.107-0.133c-0.027-0.053-0.053-0.107-0.080-0.16s-0.027-0.133-0.027-0.187 0.027-0.293 0.107-0.427c0.080-0.133 0.187-0.267 0.32-0.347 0.133-0.107 0.293-0.16 0.453-0.16 0.107 0 0.24 0 0.347 0 0.107 0.027 0.213 0.053 0.293 0.107s0.133 0.107 0.213 0.16c0.080 0.053 0.107 0.133 0.133 0.213zM14.747 18.213c0.027 0.053 0.053 0.107 0.053 0.187 0 0.053-0.027 0.133-0.053 0.187s-0.080 0.107-0.133 0.16v0c-0.080 0.053-0.187 0.107-0.293 0.080-0.107 0-0.16-0.053-0.213-0.133l-0.027-0.080c0-0.027-0.027-0.053-0.027-0.080v-0.080c0-0.027 0-0.080 0.027-0.107l0.027-0.080c0-0.027 0.027-0.053 0.053-0.053l0.053-0.080c0.107-0.080 0.213-0.107 0.293-0.107 0.133 0.053 0.213 0.107 0.24 0.187z"></path>
</symbol>
<symbol id="icon-zoom" viewBox="0 0 32 32">
<title>zoom</title>
<path d="M32 27.968c0 2.496-1.872 4.032-4.88 4.032h-6.336c-0.528-0.016-0.944-0.464-0.944-0.992s0.416-0.96 0.944-0.992h6.336c1.888 0 2.896-0.704 2.896-2.048v-6.864c0-0.528 0.416-0.944 0.928-0.992h0.064c0.256 0 0.512 0.096 0.704 0.288s0.288 0.432 0.288 0.704v6.864zM18.416 13.088c0.16 0.368 0.512 0.608 0.912 0.608h0.016c0.272 0 0.512-0.112 0.704-0.288l9.744-9.76h0.224v7.6c0.032 0.512 0.464 0.928 0.992 0.928 0.512 0 0.96-0.4 0.992-0.928v-10.208c0-0.544-0.448-0.992-0.992-0.992h-10.224c-0.512 0.032-0.928 0.464-0.928 0.992 0 0.512 0.4 0.96 0.928 0.992h7.824l-9.968 9.968c-0.288 0.288-0.368 0.72-0.224 1.088zM10.912 0h-6.032c-3.008 0-4.88 1.536-4.88 4.032v7.232c0 0.544 0.448 0.992 0.992 0.992s0.992-0.448 0.992-0.992v-7.232c0-1.344 1.008-2.064 2.896-2.064h6.032c0.512-0.032 0.928-0.464 0.928-0.992s-0.416-0.944-0.928-0.976zM13.408 18.64c-0.192-0.192-0.432-0.288-0.704-0.288-0.256 0-0.512 0.096-0.704 0.288l-9.984 9.984v-7.504c0-0.544-0.448-0.992-0.992-0.992s-0.992 0.448-0.992 0.992v9.904c0 0.544 0.448 0.992 0.992 0.992h9.872c0.512-0.032 0.928-0.464 0.928-0.992 0-0.512-0.4-0.96-0.928-0.992h-7.472l9.984-9.984c0.192-0.192 0.288-0.432 0.288-0.704 0-0.256-0.112-0.512-0.288-0.704z"></path>
</symbol>
<symbol id="icon-down-arrow" viewBox="0 0 32 32">
<title>down-arrow</title>
<path d="M31.744 7.808c0.16 0.16 0.256 0.416 0.256 0.64 0 0.256-0.096 0.48-0.256 0.64l-15.104 15.104c-0.16 0.16-0.416 0.256-0.64 0.256-0.256 0-0.48-0.096-0.64-0.256l-15.104-15.104c-0.16-0.16-0.256-0.416-0.256-0.64 0-0.256 0.096-0.48 0.256-0.64s0.416-0.256 0.64-0.256c0.256 0 0.48 0.096 0.64 0.256l14.432 14.432 0.416-0.416 14.048-14.016c0.16-0.16 0.416-0.256 0.64-0.256 0.256 0 0.48 0.096 0.672 0.256z"></path>
</symbol>
<symbol id="icon-left-arrow" viewBox="0 0 32 32">
<title>left-arrow</title>
<path d="M24.448 0.928c0 0.224-0.096 0.48-0.256 0.64l-14.432 14.464 14.432 14.432c0.16 0.16 0.256 0.384 0.256 0.64 0 0.224-0.096 0.48-0.256 0.64s-0.384 0.256-0.64 0.256c-0.224 0-0.48-0.096-0.64-0.256l-15.104-15.104c-0.16-0.16-0.256-0.384-0.256-0.64 0-0.224 0.096-0.48 0.256-0.64l15.104-15.104c0.16-0.16 0.384-0.256 0.64-0.256 0.224 0 0.48 0.096 0.64 0.256 0.16 0.192 0.256 0.416 0.256 0.672z"></path>
</symbol>
<symbol id="icon-up-arrow" viewBox="0 0 32 32">
<title>up-arrow</title>
<path d="M31.072 24.448c-0.224 0-0.48-0.096-0.64-0.256l-14.464-14.432-14.432 14.432c-0.16 0.16-0.384 0.256-0.64 0.256-0.224 0-0.48-0.096-0.64-0.256s-0.256-0.384-0.256-0.64c0-0.224 0.096-0.48 0.256-0.64l15.104-15.104c0.16-0.16 0.384-0.256 0.64-0.256 0.224 0 0.48 0.096 0.64 0.256l15.104 15.104c0.16 0.16 0.256 0.384 0.256 0.64 0 0.224-0.096 0.48-0.256 0.64-0.192 0.16-0.416 0.256-0.672 0.256z"></path>
</symbol>
<symbol id="icon-close-eyes" viewBox="0 0 32 32">
<title>close-eyes</title>
<path d="M26.912 14.848l3.168 3.296c0.128 0.128 0.288 0.192 0.48 0.192s0.352-0.064 0.48-0.224c0.288-0.288 0.288-0.672 0.032-0.992l-3.008-3.104-0.384-0.384 0.448-0.32c2.208-1.6 3.552-3.168 3.744-3.392 0.192-0.32 0.128-0.736-0.16-0.992-0.128-0.096-0.256-0.128-0.384-0.128-0.224 0-0.416 0.096-0.576 0.288l-0.032 0.032c-0.448 0.512-2.144 2.368-4.576 4.128-3.456 2.56-6.88 3.84-10.144 3.84-7.36 0-14.048-7.168-14.784-7.968v0 0 0c-0.128-0.128-0.32-0.224-0.544-0.224-0.16 0-0.32 0.064-0.448 0.16-0.128 0.064-0.224 0.224-0.224 0.416s0.032 0.352 0.16 0.48l0.064 0.064c0.096 0.128 1.472 1.696 3.68 3.424l0.416 0.32-0.384 0.384-3.040 3.136c-0.128 0.128-0.192 0.288-0.192 0.48s0.096 0.352 0.224 0.48l0.064 0.064 0.032 0.096c0 0.032 0.096 0.096 0.288 0.096 0.16 0 0.352-0.064 0.48-0.224l3.232-3.36 0.288-0.288 0.352 0.224c1.664 1.152 3.488 2.080 5.248 2.72l0.448 0.16-0.128 0.448-1.248 4.192c-0.096 0.352 0.096 0.736 0.448 0.864h0.288c0.32 0 0.576-0.192 0.64-0.512v-0.064l1.248-4.192 0.128-0.416 0.416 0.096c1.024 0.192 1.984 0.288 2.848 0.288 0.896 0 1.856-0.096 2.848-0.288l0.416-0.096 0.128 0.416 1.248 4.128v0.064c0.064 0.288 0.384 0.512 0.64 0.512h0.032l0.128-0.032c0.192-0.064 0.352-0.16 0.416-0.32 0.096-0.16 0.096-0.352 0.064-0.544l-1.248-4.128-0.128-0.448 0.448-0.16c1.792-0.64 3.584-1.568 5.248-2.72l0.352-0.224 0.32 0.256z"></path>
</symbol>
<symbol id="icon-close" viewBox="0 0 32 32">
<title>close</title>
<path d="M16 0c-8.832 0-16 7.168-16 16s7.168 16 16 16c8.832 0 16-7.168 16-16s-7.168-16-16-16zM22.528 22.528v0c-0.576 0.576-1.504 0.576-2.080 0l-4.448-4.448-4.448 4.448c-0.576 0.576-1.504 0.576-2.080 0v0c-0.576-0.576-0.576-1.504 0-2.080l4.448-4.448-4.448-4.448c-0.576-0.576-0.576-1.504 0-2.080v0c0.576-0.576 1.504-0.576 2.080 0l4.448 4.448 4.448-4.448c0.576-0.576 1.504-0.576 2.080 0v0c0.576 0.576 0.576 1.504 0 2.080l-4.448 4.448 4.448 4.448c0.576 0.576 0.576 1.504 0 2.080z"></path>
</symbol>
<symbol id="icon-open-eyes" viewBox="0 0 32 32">
<title>open-eyes</title>
<path d="M31.968 15.968c-1.28-2.336-3.424-4.352-6.176-5.824-2.88-1.536-6.272-2.336-9.824-2.336-3.52 0-6.912 0.8-9.824 2.336-2.688 1.472-4.832 3.456-6.112 5.824l-0.032 0.032 0.032 0.032c1.28 2.336 3.424 4.352 6.176 5.824 2.88 1.536 6.272 2.336 9.824 2.336 3.52 0 6.912-0.8 9.824-2.336 2.752-1.44 4.864-3.456 6.176-5.824l-0.064-0.064zM16 23.2c-3.072 0-6.048-0.672-8.64-1.952-2.496-1.248-4.48-3.008-5.76-5.088l-0.128-0.16 0.128-0.16c1.28-2.080 3.264-3.84 5.76-5.088 2.56-1.28 5.568-1.952 8.64-1.952s6.048 0.672 8.64 1.952c2.496 1.248 4.48 3.008 5.76 5.088l0.096 0.16-0.096 0.16c-1.28 2.080-3.264 3.84-5.76 5.088-2.592 1.248-5.568 1.952-8.64 1.952zM16 11.712c-2.368 0-4.288 1.92-4.288 4.288s1.92 4.288 4.288 4.288 4.288-1.92 4.288-4.288-1.92-4.288-4.288-4.288zM19.2 16c0 1.76-1.44 3.2-3.2 3.2s-3.2-1.44-3.2-3.2 1.44-3.2 3.2-3.2c1.76 0 3.2 1.44 3.2 3.2z"></path>
</symbol>
<symbol id="icon-right-arrow" viewBox="0 0 32 32">
<title>right-arrow</title>
<path d="M7.808 0.256c0.16-0.16 0.416-0.256 0.64-0.256 0.256 0 0.48 0.096 0.64 0.256l15.104 15.104c0.16 0.16 0.256 0.416 0.256 0.64 0 0.256-0.096 0.48-0.256 0.64l-15.104 15.104c-0.16 0.16-0.416 0.256-0.64 0.256-0.256 0-0.48-0.096-0.64-0.256s-0.256-0.416-0.256-0.64c0-0.256 0.096-0.48 0.256-0.64l14.432-14.432-0.416-0.416-14.016-14.048c-0.16-0.16-0.256-0.416-0.256-0.64 0-0.256 0.096-0.48 0.256-0.672z"></path>
</symbol>
<symbol id="icon-question-2" viewBox="0 0 32 32">
<title>question-2</title>
<path fill="#000" opacity="0.3" style="fill: var(--color6, #000)" d="M32 16c0 8.837-7.163 16-16 16s-16-7.163-16-16c0-8.837 7.163-16 16-16s16 7.163 16 16z"></path>
<path fill="#fff" style="fill: var(--color10, #fff)" d="M9.067 12.8h3.36c-0.16-3.093 2.293-3.573 3.573-3.573s2.933 0.8 2.933 2.72c0 1.76-0.533 2.293-2.347 3.573-1.653 0.907-2.507 2.507-2.453 4.32v0.96h3.413c0-2.88 2.133-3.253 3.787-5.653 0.853-1.12 1.28-2.453 1.227-3.84 0-2.4-2.773-5.12-6.347-5.12-3.787 0-7.147 1.973-7.147 6.613z"></path>
<path fill="#fff" style="fill: var(--color10, #fff)" d="M17.76 23.733c0 1.060-0.86 1.92-1.92 1.92s-1.92-0.86-1.92-1.92c0-1.060 0.86-1.92 1.92-1.92s1.92 0.86 1.92 1.92z"></path>
</symbol>
</defs>
</svg>
